<?xml version="1.0" encoding="utf-8"?>
<!-- Generator: Adobe Illustrator 17.0.0, SVG Export Plug-In . SVG Version: 6.00 Build 0)  -->
<!DOCTYPE svg PUBLIC "-//W3C//DTD SVG 1.1//EN" "http://www.w3.org/Graphics/SVG/1.1/DTD/svg11.dtd">
<svg version="1.1" id="Layer_1" xmlns="http://www.w3.org/2000/svg" xmlns:xlink="http://www.w3.org/1999/xlink" x="0px" y="0px"
	 width="78.574px" height="65.348px" viewBox="0 0 78.574 65.348" enable-background="new 0 0 78.574 65.348" xml:space="preserve">
<g>
	<g>
		<g>
			<path fill="#5D5D5D" d="M3.242,56.949v5.898H1.426V48.57h3.477c1.731,0,3.011,0.335,3.838,1.006s1.24,1.687,1.24,3.047
				c0,0.566-0.08,1.062-0.239,1.484s-0.371,0.786-0.635,1.089s-0.564,0.555-0.903,0.757s-0.687,0.368-1.045,0.498l3.887,6.396H8.906
				l-3.428-5.898H3.242z M3.242,55.406h1.602c0.586,0,1.084-0.057,1.494-0.171s0.747-0.283,1.011-0.508s0.456-0.505,0.576-0.84
				s0.181-0.728,0.181-1.177c0-0.469-0.066-0.866-0.2-1.191S7.57,50.927,7.3,50.719s-0.612-0.359-1.025-0.454
				s-0.903-0.142-1.47-0.142H3.242V55.406z"/>
		</g>
		<g>
			<path fill="#5D5D5D" d="M21.719,57.467c0,0.892-0.109,1.685-0.327,2.378s-0.53,1.276-0.938,1.748s-0.9,0.832-1.479,1.079
				s-1.23,0.371-1.953,0.371c-0.671,0-1.289-0.124-1.855-0.371s-1.057-0.607-1.47-1.079s-0.735-1.055-0.967-1.748
				s-0.347-1.486-0.347-2.378c0-0.886,0.109-1.672,0.327-2.358s0.529-1.267,0.933-1.738s0.896-0.83,1.479-1.074
				s1.235-0.366,1.958-0.366c0.671,0,1.289,0.122,1.855,0.366s1.057,0.603,1.47,1.074s0.735,1.052,0.967,1.738
				S21.719,56.581,21.719,57.467z M14.219,57.467c0,1.36,0.223,2.385,0.669,3.071s1.17,1.03,2.173,1.03s1.724-0.344,2.163-1.03
				s0.659-1.711,0.659-3.071s-0.223-2.378-0.669-3.052s-1.17-1.011-2.173-1.011s-1.724,0.337-2.163,1.011
				S14.219,56.107,14.219,57.467z"/>
		</g>
		<g>
			<path fill="#5D5D5D" d="M31.465,62.848l-0.264-1.436h-0.098c-0.163,0.28-0.356,0.522-0.581,0.728s-0.471,0.374-0.737,0.508
				s-0.55,0.232-0.85,0.298s-0.605,0.098-0.918,0.098c-0.593,0-1.113-0.075-1.563-0.225s-0.823-0.384-1.123-0.703
				s-0.525-0.726-0.679-1.221s-0.229-1.084-0.229-1.768v-7.002h1.777v6.904c0,0.847,0.173,1.481,0.518,1.904
				s0.879,0.635,1.602,0.635c0.527,0,0.97-0.085,1.328-0.254s0.646-0.418,0.864-0.747s0.374-0.734,0.469-1.216
				s0.142-1.035,0.142-1.66v-5.566H32.9v10.723H31.465z"/>
		</g>
		<g>
			<path fill="#5D5D5D" d="M39.541,61.588c0.117,0,0.249-0.007,0.396-0.02s0.288-0.029,0.425-0.049s0.262-0.042,0.376-0.068
				s0.2-0.049,0.259-0.068v1.348c-0.085,0.039-0.192,0.078-0.322,0.117s-0.273,0.073-0.43,0.103s-0.319,0.052-0.488,0.068
				s-0.335,0.024-0.498,0.024c-0.403,0-0.778-0.052-1.123-0.156s-0.643-0.283-0.894-0.537s-0.447-0.598-0.591-1.03
				s-0.215-0.979-0.215-1.636v-6.221h-1.514v-0.791l1.514-0.762l0.762-2.246h1.025v2.461h2.695v1.338h-2.695v6.221
				c0,0.632,0.103,1.106,0.308,1.426S39.072,61.588,39.541,61.588z"/>
		</g>
		<g>
			<path fill="#5D5D5D" d="M42.939,49.225c0-0.391,0.1-0.674,0.298-0.85s0.444-0.264,0.737-0.264c0.144,0,0.278,0.021,0.405,0.063
				s0.237,0.109,0.332,0.2s0.169,0.207,0.225,0.347s0.083,0.308,0.083,0.503c0,0.378-0.103,0.659-0.308,0.845
				s-0.451,0.278-0.737,0.278c-0.293,0-0.539-0.091-0.737-0.273S42.939,49.609,42.939,49.225z M44.854,62.848h-1.777V52.125h1.777
				V62.848z"/>
		</g>
		<g>
			<path fill="#5D5D5D" d="M54.951,62.848v-6.904c0-0.847-0.171-1.481-0.513-1.904s-0.877-0.635-1.606-0.635
				c-0.527,0-0.97,0.085-1.328,0.254s-0.646,0.42-0.864,0.752s-0.374,0.739-0.469,1.221s-0.142,1.035-0.142,1.66v5.557h-1.777
				V52.125h1.445l0.254,1.445h0.098c0.163-0.28,0.356-0.522,0.581-0.728s0.471-0.376,0.737-0.513s0.55-0.237,0.85-0.303
				s0.605-0.098,0.918-0.098c1.191,0,2.088,0.311,2.69,0.933s0.903,1.616,0.903,2.983v7.002H54.951z"/>
		</g>
		<g>
			<path fill="#5D5D5D" d="M64.268,63.043c-0.716,0-1.37-0.12-1.963-0.361s-1.102-0.593-1.528-1.055s-0.757-1.035-0.991-1.719
				s-0.352-1.465-0.352-2.344c0-0.886,0.107-1.677,0.322-2.373s0.518-1.287,0.908-1.772s0.857-0.854,1.401-1.108
				s1.145-0.381,1.802-0.381c0.645,0,1.224,0.115,1.738,0.347s0.95,0.557,1.309,0.977s0.633,0.925,0.825,1.514
				s0.288,1.242,0.288,1.958v1.104H61.27c0.032,1.257,0.298,2.181,0.796,2.773s1.238,0.889,2.222,0.889
				c0.332,0,0.64-0.017,0.923-0.049s0.557-0.08,0.82-0.142s0.52-0.14,0.767-0.234s0.498-0.2,0.752-0.317v1.582
				c-0.261,0.124-0.516,0.231-0.767,0.322s-0.508,0.166-0.771,0.225s-0.537,0.101-0.82,0.127S64.6,63.043,64.268,63.043z
				 M63.828,53.404c-0.742,0-1.33,0.254-1.763,0.762s-0.686,1.247-0.757,2.217h4.805c0-0.442-0.044-0.848-0.132-1.216
				s-0.225-0.682-0.41-0.942s-0.422-0.462-0.708-0.605S64.231,53.404,63.828,53.404z"/>
		</g>
		<g>
			<path fill="#5D5D5D" d="M77.148,59.908c0,0.521-0.095,0.977-0.283,1.367s-0.461,0.718-0.815,0.981s-0.783,0.461-1.284,0.591
				s-1.064,0.195-1.689,0.195c-0.71,0-1.318-0.057-1.826-0.171s-0.954-0.281-1.338-0.503v-1.621
				c0.202,0.104,0.427,0.207,0.674,0.308s0.508,0.19,0.781,0.269s0.555,0.142,0.845,0.19s0.578,0.073,0.864,0.073
				c0.423,0,0.783-0.036,1.079-0.107s0.537-0.174,0.723-0.308s0.32-0.296,0.405-0.488s0.127-0.405,0.127-0.64
				c0-0.202-0.032-0.384-0.098-0.547s-0.184-0.324-0.356-0.483s-0.408-0.32-0.708-0.483s-0.684-0.345-1.152-0.547
				s-0.891-0.4-1.265-0.596s-0.691-0.413-0.952-0.654s-0.461-0.52-0.601-0.835s-0.21-0.691-0.21-1.128
				c0-0.456,0.09-0.861,0.269-1.216s0.432-0.652,0.757-0.894s0.716-0.423,1.172-0.547s0.964-0.186,1.523-0.186
				c0.632,0,1.209,0.068,1.733,0.205s1.021,0.315,1.489,0.537l-0.615,1.436c-0.423-0.188-0.857-0.354-1.304-0.493
				s-0.9-0.21-1.362-0.21c-0.664,0-1.155,0.109-1.475,0.327s-0.479,0.529-0.479,0.933c0,0.228,0.037,0.427,0.112,0.596
				s0.203,0.329,0.386,0.479s0.427,0.301,0.732,0.454s0.687,0.324,1.143,0.513c0.469,0.195,0.887,0.391,1.255,0.586
				s0.682,0.415,0.942,0.659s0.459,0.522,0.596,0.835S77.148,59.472,77.148,59.908z"/>
		</g>
	</g>
	<g>
		<g>
			<path fill="#5D5D5D" d="M38.77,42.941c-11.203,0-20.317-9.115-20.317-20.318S27.566,2.305,38.77,2.305
				s20.318,9.114,20.318,20.317S49.973,42.941,38.77,42.941z M38.77,5.305c-9.549,0-17.317,7.769-17.317,17.317
				c0,9.55,7.769,17.318,17.317,17.318c9.55,0,17.318-7.769,17.318-17.318C56.088,13.073,48.319,5.305,38.77,5.305z"/>
		</g>
		<g>
			<path fill="#5D5D5D" d="M30.214,39.381"/>
		</g>
		<g>
			<path fill="#5D5D5D" d="M22.427,44.616c-0.384,0-0.768-0.146-1.061-0.439c-0.586-0.586-0.586-1.535,0-2.121l5.274-5.275
				c0.586-0.586,1.535-0.586,2.121,0s0.586,1.535,0,2.121l-5.274,5.275C23.194,44.47,22.811,44.616,22.427,44.616z"/>
		</g>
		<g>
			<path fill="#5D5D5D" d="M55.26,44.616c-0.384,0-0.768-0.146-1.061-0.439l-5.275-5.275c-0.586-0.586-0.586-1.535,0-2.121
				s1.535-0.586,2.121,0l5.275,5.275c0.586,0.586,0.586,1.535,0,2.121C56.027,44.47,55.644,44.616,55.26,44.616z"/>
		</g>
		<g>
			<g>
				<path fill="#5D5D5D" d="M38.093,27.548c-0.384,0-0.768-0.146-1.061-0.439l-5.598-5.597c-0.586-0.586-0.586-1.535,0-2.121
					c0.586-0.586,1.535-0.586,2.121,0l5.598,5.597c0.586,0.586,0.586,1.535,0,2.121C38.86,27.402,38.477,27.548,38.093,27.548z"/>
			</g>
			<g>
				<path fill="#5D5D5D" d="M38.093,27.548c-0.384,0-0.768-0.146-1.061-0.439c-0.586-0.586-0.586-1.535,0-2.121l10.892-10.892
					c0.586-0.586,1.535-0.586,2.121,0s0.586,1.535,0,2.121L39.153,27.109C38.86,27.402,38.477,27.548,38.093,27.548z"/>
			</g>
		</g>
		<g>
			<path fill="#5D5D5D" d="M38.77,41.674c-0.828,0-1.5-0.672-1.5-1.5v-2.666c0-0.828,0.672-1.5,1.5-1.5s1.5,0.672,1.5,1.5v2.666
				C40.27,41.002,39.598,41.674,38.77,41.674z"/>
		</g>
		<g>
			<path fill="#5D5D5D" d="M38.77,8.638c-0.828,0-1.5-0.672-1.5-1.5V4.472c0-0.828,0.672-1.5,1.5-1.5s1.5,0.672,1.5,1.5v2.666
				C40.27,7.966,39.598,8.638,38.77,8.638z"/>
		</g>
		<g>
			<path fill="#5D5D5D" d="M23.585,23.822h-2.667c-0.828,0-1.5-0.672-1.5-1.5s0.672-1.5,1.5-1.5h2.667c0.828,0,1.5,0.672,1.5,1.5
				S24.413,23.822,23.585,23.822z"/>
		</g>
		<g>
			<path fill="#5D5D5D" d="M56.621,23.822h-2.667c-0.828,0-1.5-0.672-1.5-1.5s0.672-1.5,1.5-1.5h2.667c0.828,0,1.5,0.672,1.5,1.5
				S57.449,23.822,56.621,23.822z"/>
		</g>
	</g>
</g>
</svg>
