<?xml version="1.0" encoding="utf-8"?>
<!-- Generator: Adobe Illustrator 17.0.0, SVG Export Plug-In . SVG Version: 6.00 Build 0)  -->
<!DOCTYPE svg PUBLIC "-//W3C//DTD SVG 1.1//EN" "http://www.w3.org/Graphics/SVG/1.1/DTD/svg11.dtd">
<svg version="1.1" id="Layer_1" xmlns="http://www.w3.org/2000/svg" xmlns:xlink="http://www.w3.org/1999/xlink" x="0px" y="0px"
	 width="75.83px" height="69.776px" viewBox="0 0 75.83 69.776" enable-background="new 0 0 75.83 69.776" xml:space="preserve">
<g>
	<g>
		<path fill="#5D5D5D" d="M50.906,28.2c0.024,8.221-8.157,13.75-15.827,10.652c-1.027-0.415-1.848-0.428-2.904-0.028
			c-3.948,1.496-7.867,1.249-11.606-0.732c-0.964-0.511-1.651-0.546-2.641,0.022c-4.478,2.571-10.185,0.689-12.376-3.98
			c-2.177-4.64,0.103-10.208,4.982-12.011c0.866-0.32,1.207-0.716,1.444-1.646c1.611-6.324,5.663-10.285,12.068-11.508
			c6.522-1.244,11.816,1.036,15.771,6.338c0.706,0.947,1.375,1.583,2.622,1.884C47.39,18.386,50.892,23.057,50.906,28.2z
			 M14.839,21.351c1.218,0.555,2.432,0.937,3.418,1.638c0.426,0.303,0.381,1.267,0.549,1.931c-0.655,0.156-1.304,0.389-1.966,0.434
			c-0.327,0.022-0.668-0.326-1.019-0.467c-2.665-1.074-5.733-0.069-7.242,2.363c-1.558,2.511-1.065,5.752,1.165,7.656
			c2.172,1.854,5.555,1.997,7.613,0.108c1.197-1.099,2.069-1.071,3.385-0.208c3.775,2.477,7.728,2.818,11.838,0.671
			c0.58-0.303,1.495-0.163,2.198,0.007c1.609,0.388,3.169,1.258,4.776,1.328c3.632,0.158,6.923-2.443,8.062-5.951
			c1.131-3.485-0.128-7.328-3.124-9.539c-2.949-2.176-7.028-2.213-10.016-0.025c-0.732,0.536-1.247,1.393-2.013,1.851
			c-0.533,0.319-1.324,0.207-1.999,0.287c-0.077-0.675-0.457-1.553-0.169-1.983c0.646-0.966,1.523-1.863,2.493-2.505
			c1.325-0.876,2.825-1.488,4.249-2.214c-1.879-3.536-7.144-5.708-12.146-5.011C19.926,12.412,15.78,16.363,14.839,21.351z"/>
		<path fill="#5D5D5D" d="M46.228,14.51c6.614,3.583,9.474,9.153,8.784,16.59c4.661-1.782,7.327-6.694,6.486-12.185
			c-0.642-4.189-3.134-7.116-7.016-8.652c-3.883-1.536-7.655-0.993-11.059,1.485c-0.304,0.222-0.299,0.869-0.437,1.318
			c0.195,0.047,0.389,0.095,0.584,0.142C43.57,13.21,46.128,14.455,46.228,14.51z"/>
		<path fill="#5D5D5D" d="M63.529,27.588c0.347-0.892,0.617-1.588,0.941-2.42c1.968,0.828,3.933,1.558,5.788,2.502
			c0.462,0.235,0.573,1.159,0.845,1.766c-0.641,0.182-1.385,0.669-1.904,0.493C67.322,29.291,65.521,28.432,63.529,27.588z"/>
		<path fill="#5D5D5D" d="M54.88,34.942c0.871-0.345,1.558-0.617,2.421-0.958c0.822,2.038,1.683,3.998,2.366,6.018
			c0.138,0.407-0.285,1.353-0.658,1.491c-0.424,0.157-1.398-0.158-1.582-0.536C56.495,39.036,55.741,37.028,54.88,34.942z"/>
		<path fill="#5D5D5D" d="M57.003,7.64c-0.883-0.359-1.57-0.638-2.434-0.989c0.883-2.041,1.674-4.038,2.634-5.951
			C57.4,0.305,58.226,0.225,58.762,0c0.237,0.589,0.808,1.291,0.654,1.747C58.759,3.678,57.888,5.535,57.003,7.64z"/>
		<path fill="#5D5D5D" d="M45.67,6.762c-0.911,0.385-1.589,0.672-2.393,1.012c-0.827-2.044-1.686-3.95-2.334-5.926
			c-0.149-0.454,0.427-1.145,0.669-1.727c0.564,0.269,1.427,0.393,1.641,0.833C44.142,2.782,44.835,4.704,45.67,6.762z"/>
		<path fill="#5D5D5D" d="M64.4,16.254c-0.34-0.804-0.63-1.49-1.021-2.415c2.073-0.803,4.082-1.655,6.153-2.318
			c0.4-0.128,1.339,0.384,1.479,0.79c0.135,0.391-0.31,1.309-0.731,1.508C68.394,14.714,66.426,15.435,64.4,16.254z"/>
		<path fill="#5D5D5D" d="M60.275,31.834c0.464-0.488,0.785-0.825,1.482-1.556c0.566,0.756,1.137,1.401,1.552,2.134
			c0.164,0.29-0.019,0.776-0.043,1.173c-0.376-0.032-0.842,0.066-1.111-0.12C61.502,33.012,60.941,32.428,60.275,31.834z"/>
		<path fill="#5D5D5D" d="M65.2,21.452c0-0.704,0-1.164,0-1.749c0.783,0,1.537-0.096,2.247,0.04c0.363,0.07,0.647,0.556,0.966,0.854
			c-0.325,0.285-0.614,0.742-0.982,0.817C66.771,21.548,66.065,21.452,65.2,21.452z"/>
		<path fill="#5D5D5D" d="M51.239,4.699c-0.51,0.589-0.88,1.017-1.25,1.445c-0.264-0.598-0.734-1.197-0.731-1.794
			c0.003-0.528,0.532-1.053,0.829-1.579C50.425,3.337,50.764,3.904,51.239,4.699z"/>
		<path fill="#5D5D5D" d="M61.313,11.17c-0.695-0.707-1.021-1.038-1.669-1.697c0.838-0.648,1.441-1.204,2.133-1.609
			c0.292-0.171,0.77-0.023,1.163-0.021c-0.006,0.392,0.125,0.862-0.045,1.16C62.5,9.696,61.959,10.306,61.313,11.17z"/>
	</g>
	<text transform="matrix(1 0 0 1 1.220703e-004 64.972)" fill="#5D5D5D" font-family="'DroidSans'" font-size="20">Weather</text>
</g>
</svg>
