<?xml version="1.0" encoding="utf-8"?>
<!-- Generator: Adobe Illustrator 17.0.0, SVG Export Plug-In . SVG Version: 6.00 Build 0)  -->
<!DOCTYPE svg PUBLIC "-//W3C//DTD SVG 1.1//EN" "http://www.w3.org/Graphics/SVG/1.1/DTD/svg11.dtd">
<svg version="1.1" id="Layer_1" xmlns="http://www.w3.org/2000/svg" xmlns:xlink="http://www.w3.org/1999/xlink" x="0px" y="0px"
	 width="352.471px" height="352.471px" viewBox="0 0 352.471 352.471" enable-background="new 0 0 352.471 352.471"
	 xml:space="preserve">
<circle fill="#FFFFFF" cx="176.236" cy="176.236" r="176.236"/>
<circle fill="#600502" cx="176.236" cy="176.236" r="167.419"/>
<g>
	<g>
		<g>
			<path fill="#FFFFFF" d="M277.754,220.101l-77.686,21.419l-9.336-33.863l77.686-21.419c2.323-0.64,4.086-2.018,5.289-4.138
				c1.202-2.117,1.483-4.338,0.842-6.662c-0.663-2.406-1.929-3.755-3.794-4.044c-1.867-0.289-3.962-0.113-6.285,0.527l-35.357,9.748
				c-5.894,1.625-11.722,2.026-17.485,1.204c-5.765-0.822-11.087-2.636-15.968-5.443c-4.883-2.807-9.133-6.478-12.751-11.019
				c-3.619-4.539-6.239-9.754-7.864-15.649c-1.624-5.892-2.047-11.714-1.266-17.467c0.78-5.751,2.553-11.063,5.319-15.935
				c2.764-4.869,6.417-9.114,10.957-12.733c4.539-3.617,9.755-6.24,15.649-7.865l68.847-18.982l9.336,33.863l-68.847,18.982
				c-2.325,0.641-4.087,2.021-5.289,4.138c-1.203,2.119-1.483,4.339-0.842,6.662c0.664,2.409,2.059,4.234,4.189,5.476
				c2.129,1.245,4.355,1.546,6.68,0.905l35.357-9.748c5.808-1.601,11.556-2.135,17.24-1.605c5.683,0.533,10.914,2.014,15.694,4.447
				c4.777,2.434,8.964,5.79,12.555,10.069c3.592,4.28,6.188,9.325,7.789,15.133c1.625,5.894,2.02,11.701,1.187,17.423
				c-0.833,5.722-2.628,11.04-5.381,15.952c-2.755,4.912-6.401,9.179-10.94,12.795C288.738,215.891,283.563,218.499,277.754,220.101
				z"/>
		</g>
		<g>
			<path fill="#FFFFFF" d="M135.468,116.484c26.721-7.367,53.014-14.616,79.538-21.929c3.239,11.748,6.008,21.27,9.29,33.174
				c-19.799,5.459-38.88,11.175-58.697,16.639c-11.959,33.298-23.606,67.363-35.516,100.524c-12.004,3.31-23.788,6.558-35.908,9.9
				c1.545,5.602,3.045,11.045,4.375,15.868c-14.8-8.123-29.797-16.354-44.307-24.319c8.034-13.674,16.735-28.482,25.276-43.018
				c1.268,4.599,2.758,10.002,4.328,15.699c6.066-1.672,11.779-3.248,17.917-4.94C113.055,181.491,124.056,149.422,135.468,116.484z
				"/>
		</g>
		<g>
			<path fill="#FFFFFF" d="M53.723,111.092c1.391,5.047,2.865,10.393,4.44,16.105c11.917-3.286,23.639-6.518,35.368-9.751
				c8.952,8.238,17.669,16.26,26.599,24.478c-4.262,12.669-8.527,25.345-12.946,38.48c-7.798-7.431-15.326-14.604-22.868-21.79
				c-5.353,1.476-10.578,2.916-16.12,4.444c1.537,5.575,3.035,11.009,4.387,15.913c-14.521-8.24-29.179-16.557-43.426-24.642
				C36.998,140.53,45.349,125.83,53.723,111.092z"/>
		</g>
		<g>
			<path fill="#FFFFFF" d="M231.946,196.347c3.25,11.787,6.143,22.28,9.323,33.814c-25.827,7.121-51.502,14.2-77.628,21.403
				c-3.163-2.988-6.553-6.189-10.18-9.616c4.307-12.569,8.601-25.101,13.028-38.021c2.836,2.595,5.601,5.704,8.305,8.178
				C193.784,206.868,212.737,201.643,231.946,196.347z"/>
		</g>
	</g>
</g>
</svg>
