<?xml version="1.0" encoding="utf-8"?>
<!-- Generator: Adobe Illustrator 17.0.0, SVG Export Plug-In . SVG Version: 6.00 Build 0)  -->
<!DOCTYPE svg PUBLIC "-//W3C//DTD SVG 1.1//EN" "http://www.w3.org/Graphics/SVG/1.1/DTD/svg11.dtd">
<svg version="1.1" id="Layer_1" xmlns="http://www.w3.org/2000/svg" xmlns:xlink="http://www.w3.org/1999/xlink" x="0px" y="0px"
	 width="446.978px" height="446.978px" viewBox="0 0 446.978 446.978" enable-background="new 0 0 446.978 446.978"
	 xml:space="preserve">
<g>
	<path fill="#776F57" d="M446.978,374.978c0,39.764-32.236,72-72,72H72c-39.765,0-72-32.236-72-72V72C0,32.235,32.236,0,72,0
		h302.978c39.764,0,72,32.235,72,72V374.978z"/>
</g>
<g>
	<path fill="#FFFFFF" d="M240.182,321.228c-9.665-2.634-19.267-5.546-29.027-7.766c-3.919-0.891-8.664-1.496-12.216-0.122
		c-26.539,10.279-52.08,8.304-77.382-4.242c-3.348-1.659-9.106-1.663-12.326,0.126c-29.044,16.125-64.299,5.869-78.742-23.417
		c-14.41-29.22-0.888-63.527,30.502-75.678c6.161-2.385,7.938-6.209,9.393-11.553c12.517-45.964,49.819-74.457,97.137-72.607
		c33.128,1.296,59.193,16.703,78.301,43.994c2.442,3.487,6.524,7.208,10.447,8.059c35.254,7.647,59.477,40.067,56.485,73.964
		C309.124,293.118,279.505,319.616,240.182,321.228z M88.192,205.086c8.046,3.877,15.593,6.842,22.299,11.126
		c2.178,1.391,3.837,7.09,2.719,9.282c-1.499,2.939-5.708,5.372-9.168,6.133c-2.343,0.515-5.388-2.251-8.142-3.496
		c-16.934-7.656-36.549-2.214-46.559,12.904c-10.138,15.31-7.587,35.63,6.028,47.997c13.605,12.359,34.18,13.452,48.19,1.2
		c7.558-6.61,12.851-6.568,21.123-1.092c22.033,14.583,45.884,17.86,70.05,5.535c7.858-4.009,13.315-4.015,21.181,0.327
		c20.282,11.195,40.367,8.906,58.744-5.229c16.579-12.752,23.873-35.493,18.251-55.436c-6.007-21.307-22.929-36.037-44.56-38.875
		c-19.737-2.59-35.677,4.337-48.683,19.032c-6.19,6.994-14.191,7.615-16.189,0.967c-1.112-3.702,0.294-9.484,2.723-12.696
		c10.093-13.342,24.301-20.914,40.356-25.15c-10.65-22.954-45.182-37.323-76.619-32.48
		C118.729,149.941,91.183,176.746,88.192,205.086z"/>
	<path fill="#FFFFFF" d="M315.662,309.939c3.284-4.821,6.102-8.958,7.899-11.596c12.783,0.903,24.624,3.803,35.779,2.13
		c30.306-4.543,50.444-35.125,43.36-63.341c-8.084-32.198-38.393-50.04-69.115-39.215c-12.66,4.461-12.289-6.518-19.206-11.759
		c7.782-3.385,14.38-6.255,22.028-9.58c-12.871-17.934-30.044-27.812-51.042-31.537c-4.275-0.758-8.732-1.004-13.072-0.79
		c-15.989,0.786-15.983,0.895-27.019-13.827c24.573-8.111,47.828-5.244,70.422,5.352c16.256,7.625,28.811,19.578,39.257,34.164
		c2.755,3.846,7.799,7.323,12.39,8.383c31.885,7.364,56.865,41.194,54.788,72.519c-2.819,42.5-37.636,68.324-68.143,68.728
		C337.314,319.789,327.309,317.541,315.662,309.939z"/>
</g>
</svg>
