<?xml version="1.0" encoding="utf-8"?>
<!-- Generator: Adobe Illustrator 17.0.0, SVG Export Plug-In . SVG Version: 6.00 Build 0)  -->
<!DOCTYPE svg PUBLIC "-//W3C//DTD SVG 1.1//EN" "http://www.w3.org/Graphics/SVG/1.1/DTD/svg11.dtd">
<svg version="1.1" id="Layer_1" xmlns="http://www.w3.org/2000/svg" xmlns:xlink="http://www.w3.org/1999/xlink" x="0px" y="0px"
	 width="446.978px" height="446.978px" viewBox="0 0 446.978 446.978" enable-background="new 0 0 446.978 446.978"
	 xml:space="preserve">
<g>
	<path fill="#600502" d="M446.977,374.978c0,39.764-32.235,72-72,72H72c-39.765,0-72-32.236-72-72V72C0,32.235,32.235,0,72,0
		h302.978c39.765,0,72,32.235,72,72V374.978z"/>
</g>
<g>
	<path fill="#FFFFFF" d="M237.914,307.952c-8.352-2.276-16.65-4.793-25.084-6.711c-3.387-0.77-7.487-1.293-10.557-0.105
		c-22.934,8.883-45.006,7.176-66.871-3.666c-2.893-1.434-7.869-1.437-10.652,0.109c-25.099,13.935-55.565,5.072-68.046-20.236
		c-12.453-25.251-0.767-54.898,26.359-65.398c5.324-2.061,6.86-5.366,8.117-9.984c10.817-39.72,43.052-64.343,83.942-62.744
		c28.628,1.12,51.152,14.434,67.665,38.018c2.11,3.013,5.638,6.229,9.028,6.964c30.465,6.608,51.398,34.624,48.812,63.917
		C297.491,283.66,271.895,306.559,237.914,307.952z M106.57,207.586c6.953,3.35,13.475,5.913,19.27,9.615
		c1.882,1.202,3.316,6.127,2.35,8.021c-1.295,2.54-4.933,4.642-7.923,5.3c-2.025,0.445-4.656-1.945-7.036-3.021
		c-14.634-6.616-31.584-1.913-40.235,11.151c-8.761,13.23-6.556,30.79,5.209,41.477c11.757,10.68,29.537,11.625,41.644,1.037
		c6.531-5.712,11.105-5.676,18.254-0.944c19.04,12.602,39.651,15.434,60.535,4.783c6.791-3.464,11.506-3.47,18.304,0.283
		c17.527,9.674,34.884,7.696,50.764-4.519c14.327-11.02,20.63-30.672,15.772-47.906c-5.191-18.413-19.814-31.142-38.507-33.594
		c-17.056-2.238-30.831,3.748-42.07,16.447c-5.349,6.044-12.263,6.581-13.99,0.836c-0.961-3.199,0.254-8.196,2.353-10.971
		c8.722-11.53,21-18.073,34.874-21.734c-9.203-19.836-39.045-32.253-66.211-28.068C132.959,159.932,109.154,183.096,106.57,207.586z
		"/>
	<path fill="#FFFFFF" d="M303.141,298.196c2.838-4.166,5.273-7.741,6.826-10.021c11.047,0.78,21.279,3.286,30.919,1.841
		c26.189-3.926,43.592-30.354,37.47-54.737c-6.986-27.824-33.178-43.243-59.727-33.888c-10.94,3.855-10.62-5.633-16.597-10.162
		c6.725-2.925,12.427-5.405,19.036-8.279c-11.123-15.498-25.963-24.034-44.109-27.253c-3.694-0.655-7.546-0.868-11.296-0.683
		c-13.817,0.679-13.812,0.773-23.349-11.949c21.235-7.009,41.331-4.532,60.856,4.625c14.048,6.589,24.897,16.919,33.924,29.523
		c2.381,3.324,6.74,6.328,10.707,7.244c27.554,6.364,49.141,35.598,47.346,62.668c-2.436,36.727-32.524,59.043-58.887,59.392
		C321.852,306.708,313.206,304.766,303.141,298.196z"/>
</g>
</svg>
