<?xml version="1.0" encoding="utf-8"?>
<!-- Generator: Adobe Illustrator 17.0.0, SVG Export Plug-In . SVG Version: 6.00 Build 0)  -->
<!DOCTYPE svg PUBLIC "-//W3C//DTD SVG 1.1//EN" "http://www.w3.org/Graphics/SVG/1.1/DTD/svg11.dtd">
<svg version="1.1" id="Layer_1" xmlns="http://www.w3.org/2000/svg" xmlns:xlink="http://www.w3.org/1999/xlink" x="0px" y="0px"
	 width="446.978px" height="446.978px" viewBox="0 0 446.978 446.978" enable-background="new 0 0 446.978 446.978"
	 xml:space="preserve">
<g>
	<path fill="#5D5777" d="M446.978,374.978c0,39.764-32.236,72-72,72H72c-39.765,0-72-32.236-72-72V72C0,32.235,32.236,0,72,0
		h302.978c39.764,0,72,32.235,72,72V374.978z"/>
</g>
<g>
	<path fill="#FFFFFF" d="M305.617,298.389c-11.131-3.034-22.188-6.388-33.427-8.943c-4.514-1.026-9.977-1.723-14.068-0.14
		c-30.563,11.838-59.976,9.563-89.113-4.885c-3.855-1.912-10.485-1.914-14.195,0.145c-33.447,18.57-74.047,6.759-90.678-26.966
		c-16.596-33.65-1.022-73.157,35.126-87.15c7.094-2.747,9.141-7.15,10.817-13.305c14.416-52.932,57.371-85.744,111.862-83.613
		c38.15,1.492,68.166,19.235,90.171,50.663c2.812,4.015,7.514,8.301,12.03,9.28c40.598,8.807,68.493,46.141,65.048,85.177
		C385.009,266.017,350.899,296.533,305.617,298.389z M130.585,164.64c9.266,4.464,17.958,7.88,25.68,12.813
		c2.507,1.602,4.418,8.164,3.132,10.69c-1.725,3.385-6.573,6.186-10.558,7.062c-2.699,0.593-6.205-2.592-9.377-4.026
		c-19.502-8.816-42.089-2.549-53.617,14.859c-11.675,17.631-8.737,41.03,6.941,55.273c15.668,14.232,39.361,15.492,55.495,1.381
		c8.703-7.611,14.798-7.564,24.325-1.258c25.372,16.793,52.839,20.568,80.669,6.373c9.051-4.616,15.333-4.624,24.392,0.377
		c23.356,12.892,46.487,10.256,67.649-6.022c19.092-14.685,27.492-40.874,21.017-63.84c-6.917-24.538-26.404-41.5-51.315-44.768
		c-22.73-2.982-41.087,4.995-56.063,21.918c-7.128,8.054-16.342,8.77-18.644,1.113c-1.281-4.263,0.338-10.922,3.135-14.62
		c11.624-15.365,27.985-24.084,46.473-28.963c-12.265-26.434-52.032-42.981-88.233-37.404
		C165.752,101.136,134.029,132.005,130.585,164.64z"/>
</g>
<path fill="#FFFFFF" d="M162.701,299.73c3.906,7.116,7.966,14.425,11.938,21.782c3.229,5.983,6.418,11.999,7.408,18.865
	c1.094,7.591-1.19,13.973-7.282,18.664c-6.253,4.814-13.243,5.538-20.298,2.067c-6.843-3.366-10.573-9.07-10.842-16.82
	c-0.216-6.222,2.114-11.789,4.826-17.158c3.098-6.134,6.585-12.071,9.795-18.149C159.929,305.796,161.382,302.487,162.701,299.73z
	 M163.066,313.365c-0.488,0.598-0.769,0.854-0.942,1.169c-2.703,4.913-5.62,9.726-8.011,14.787
	c-1.808,3.827-3.276,7.89-4.288,11.997c-1.274,5.169,1.307,10.727,5.772,13.541c4.882,3.077,9.927,3.142,14.708-0.048
	c4.764-3.179,7.119-7.943,5.681-13.503c-1.368-5.292-3.571-10.418-5.87-15.403C168.154,321.65,165.535,317.699,163.066,313.365z"/>
<path fill="#FFFFFF" d="M224.672,299.73c3.906,7.116,7.966,14.425,11.938,21.782c3.229,5.983,6.418,11.999,7.408,18.865
	c1.094,7.591-1.19,13.973-7.282,18.664c-6.253,4.814-13.243,5.538-20.298,2.067c-6.843-3.366-10.573-9.07-10.842-16.82
	c-0.216-6.222,2.114-11.789,4.826-17.158c3.098-6.134,6.585-12.071,9.795-18.149C221.9,305.796,223.353,302.487,224.672,299.73z
	 M225.035,313.365c-0.488,0.598-0.769,0.854-0.942,1.169c-2.703,4.913-5.62,9.726-8.011,14.787
	c-1.808,3.827-3.276,7.89-4.288,11.997c-1.274,5.169,1.307,10.727,5.772,13.541c4.882,3.077,9.927,3.142,14.708-0.048
	c4.764-3.179,7.119-7.943,5.681-13.503c-1.368-5.292-3.571-10.418-5.87-15.403C230.125,321.65,227.505,317.699,225.035,313.365z"/>
<path fill="#FFFFFF" d="M283.755,299.73c3.905,7.116,7.966,14.425,11.938,21.782c3.229,5.983,6.418,11.999,7.409,18.865
	c1.094,7.591-1.19,13.973-7.282,18.664c-6.253,4.814-13.243,5.538-20.298,2.067c-6.843-3.366-10.573-9.07-10.842-16.82
	c-0.216-6.222,2.114-11.789,4.826-17.158c3.098-6.134,6.585-12.071,9.795-18.149C280.983,305.796,282.436,302.487,283.755,299.73z
	 M284.119,313.365c-0.488,0.598-0.769,0.854-0.942,1.169c-2.703,4.913-5.62,9.726-8.011,14.787
	c-1.808,3.827-3.276,7.89-4.288,11.997c-1.274,5.169,1.307,10.727,5.772,13.541c4.882,3.077,9.927,3.142,14.708-0.048
	c4.764-3.179,7.119-7.943,5.681-13.503c-1.368-5.292-3.57-10.418-5.87-15.403C289.208,321.65,286.588,317.699,284.119,313.365z"/>
</svg>
