<?xml version="1.0" encoding="utf-8"?>
<!-- Generator: Adobe Illustrator 17.0.0, SVG Export Plug-In . SVG Version: 6.00 Build 0)  -->
<!DOCTYPE svg PUBLIC "-//W3C//DTD SVG 1.1//EN" "http://www.w3.org/Graphics/SVG/1.1/DTD/svg11.dtd">
<svg version="1.1" id="Layer_1" xmlns="http://www.w3.org/2000/svg" xmlns:xlink="http://www.w3.org/1999/xlink" x="0px" y="0px"
	 width="446.978px" height="446.978px" viewBox="0 0 446.978 446.978" enable-background="new 0 0 446.978 446.978"
	 xml:space="preserve">
<g>
	<path fill="#600502" d="M446.978,374.978c0,39.764-32.236,72-72,72H72c-39.765,0-72-32.236-72-72V72C0,32.235,32.235,0,72,0
		h302.978c39.764,0,72,32.235,72,72V374.978z"/>
</g>
<g>
	<g>
		<path fill="#FFFFFF" d="M292.174,260.7c-9.309-2.537-18.556-5.342-27.955-7.479c-3.775-0.858-8.344-1.441-11.765-0.117
			c-25.56,9.9-50.158,7.998-74.526-4.085c-3.224-1.599-8.769-1.601-11.871,0.121c-27.972,15.53-61.926,5.653-75.835-22.552
			c-13.879-28.142-0.855-61.182,29.376-72.884c5.933-2.297,7.645-5.98,9.046-11.127c12.056-44.267,47.98-71.708,93.551-69.926
			c31.905,1.248,57.008,16.086,75.411,42.37c2.352,3.358,6.284,6.942,10.061,7.761c33.952,7.365,57.281,38.588,54.4,71.234
			C358.57,233.627,330.044,259.148,292.174,260.7z M145.794,148.845c7.749,3.733,15.018,6.59,21.476,10.716
			c2.097,1.34,3.695,6.828,2.619,8.94c-1.443,2.831-5.497,5.173-8.83,5.906c-2.257,0.496-5.189-2.168-7.842-3.367
			c-16.31-7.373-35.199-2.132-44.84,12.427c-9.764,14.745-7.307,34.314,5.805,46.225c13.103,11.902,32.918,12.956,46.411,1.155
			c7.278-6.365,12.376-6.326,20.343-1.052c21.219,14.044,44.19,17.201,67.464,5.33c7.569-3.86,12.823-3.867,20.399,0.315
			c19.533,10.782,38.877,8.577,56.575-5.036c15.967-12.281,22.992-34.183,17.577-53.39c-5.785-20.521-22.082-34.707-42.915-37.44
			c-19.009-2.494-34.361,4.177-46.886,18.33c-5.961,6.736-13.667,7.334-15.592,0.931c-1.071-3.565,0.283-9.134,2.622-12.227
			c9.721-12.85,23.404-20.142,38.866-24.222c-10.257-22.107-43.515-35.945-73.79-31.281
			C175.204,95.736,148.674,121.552,145.794,148.845z"/>
	</g>
	<g>
		<path fill="#FFFFFF" d="M146.661,278.273c5.909,10.767,12.053,21.825,18.062,32.956c4.885,9.052,9.711,18.154,11.209,28.543
			c1.655,11.485-1.801,21.141-11.018,28.238c-9.46,7.284-20.036,8.379-30.711,3.128c-10.354-5.092-15.997-13.723-16.404-25.448
			c-0.327-9.414,3.199-17.837,7.302-25.96c4.688-9.281,9.963-18.263,14.82-27.46C142.467,287.45,144.665,282.444,146.661,278.273z
			 M147.212,298.903c-0.738,0.905-1.163,1.292-1.425,1.769c-4.09,7.433-8.503,14.715-12.121,22.373
			c-2.735,5.79-4.956,11.937-6.487,18.151c-1.927,7.821,1.978,16.23,8.733,20.487c7.387,4.656,15.019,4.754,22.253-0.073
			c7.208-4.81,10.771-12.018,8.596-20.43c-2.07-8.006-5.403-15.762-8.881-23.305C154.911,311.437,150.948,305.459,147.212,298.903z"
			/>
		<path fill="#FFFFFF" d="M225.28,278.273c5.909,10.767,12.053,21.825,18.062,32.956c4.885,9.052,9.711,18.154,11.209,28.543
			c1.655,11.485-1.801,21.141-11.018,28.238c-9.46,7.284-20.036,8.379-30.711,3.128c-10.354-5.092-15.997-13.723-16.404-25.448
			c-0.327-9.414,3.199-17.837,7.302-25.96c4.688-9.281,9.963-18.263,14.82-27.46C221.086,287.45,223.284,282.444,225.28,278.273z
			 M225.83,298.903c-0.738,0.905-1.163,1.292-1.425,1.769c-4.09,7.433-8.503,14.715-12.121,22.373
			c-2.735,5.79-4.956,11.937-6.487,18.151c-1.927,7.821,1.978,16.23,8.733,20.487c7.387,4.656,15.019,4.754,22.253-0.073
			c7.208-4.81,10.771-12.018,8.596-20.43c-2.07-8.006-5.403-15.762-8.881-23.305C233.53,311.437,229.567,305.459,225.83,298.903z"/>
		<path fill="#FFFFFF" d="M299.53,278.273c5.909,10.767,12.053,21.825,18.062,32.956c4.885,9.052,9.711,18.154,11.209,28.543
			c1.655,11.485-1.801,21.141-11.018,28.238c-9.46,7.284-20.036,8.379-30.711,3.128c-10.354-5.092-15.997-13.723-16.404-25.448
			c-0.327-9.414,3.199-17.837,7.302-25.96c4.688-9.281,9.963-18.263,14.82-27.46C295.336,287.45,297.534,282.444,299.53,278.273z
			 M300.081,298.903c-0.738,0.905-1.163,1.292-1.425,1.769c-4.09,7.433-8.503,14.715-12.121,22.373
			c-2.735,5.79-4.956,11.937-6.487,18.151c-1.927,7.821,1.978,16.23,8.733,20.487c7.387,4.656,15.019,4.754,22.253-0.073
			c7.208-4.81,10.771-12.018,8.596-20.43c-2.07-8.006-5.402-15.762-8.881-23.305C307.78,311.437,303.817,305.459,300.081,298.903z"
			/>
	</g>
</g>
</svg>
