<?xml version="1.0" encoding="utf-8"?>
<!-- Generator: Adobe Illustrator 17.0.0, SVG Export Plug-In . SVG Version: 6.00 Build 0)  -->
<!DOCTYPE svg PUBLIC "-//W3C//DTD SVG 1.1//EN" "http://www.w3.org/Graphics/SVG/1.1/DTD/svg11.dtd">
<svg version="1.1" id="Layer_1" xmlns="http://www.w3.org/2000/svg" xmlns:xlink="http://www.w3.org/1999/xlink" x="0px" y="0px"
	 width="446.978px" height="446.978px" viewBox="0 0 446.978 446.978" enable-background="new 0 0 446.978 446.978"
	 xml:space="preserve">
<g>
	<path fill="#FFFFFF" d="M446.978,374.978c0,39.764-32.236,72-72,72H72c-39.765,0-72-32.236-72-72V72C0,32.235,32.236,0,72,0
		h302.978c39.764,0,72,32.235,72,72V374.978z"/>
</g>
<path fill="#5D5777" d="M337.605,272.208c9.74,8.954,25.588,12.605,16.869,27.217c-8.539,14.311-19.611,2.969-31.614-1.117
	c1.696,7.903,3.198,14.332,4.437,20.811c1.735,9.083,1.187,17.414-9.545,20.562c-7.894,2.315-14.365-3.369-17.068-14.504
	c-2.187-9.007-5.317-17.94-6.17-27.079c-1.407-15.067-9.146-23.732-22.184-30.875c-10.931-5.989-20.01-9.19-29.618,0.38
	c-2.616,2.606-4.988,6.343-5.635,9.895c-3.858,21.171,2.127,38.296,20.816,50.64c6.671,4.406,12.313,10.609,17.715,16.63
	c5.195,5.79,6.148,12.713,0.306,18.779c-5.672,5.888-12.142,6.334-18.522,0.679c-5.975-5.297-11.927-10.618-18.951-16.875
	c-3.453,11.301,2.842,27.44-14.952,27.825c-18.414,0.398-11.262-16.429-15.206-27.976c-6.994,6.261-12.583,11.237-18.142,16.246
	c-6.426,5.79-13.29,6.747-19.584,0.411c-6.786-6.832-5.476-13.886,1.251-20.233c7.883-7.439,15.281-15.508,23.811-22.114
	c11.027-8.539,15.292-18.518,14.825-32.745c-0.405-12.328-1.733-22.053-14.945-25.671c-3.903-1.069-8.765-1.88-12.301-0.515
	c-19.294,7.45-32.062,20.052-32.974,42.425c-0.324,7.946-3.378,15.833-5.577,23.636c-2.279,8.09-7.733,13.317-16.27,10.893
	c-8.344-2.368-12.428-8.474-9.708-17.959c1.987-6.926,3.029-14.121,4.731-22.356c-11.531,1.973-23.108,15.014-31.808,0.245
	c-8.985-15.254,8.832-18.083,16.474-27.372c-7.761-2.404-14.207-4.415-20.663-6.398c-8.975-2.758-14.356-8.207-11.606-18.067
	c2.757-9.884,10.882-10.307,18.841-8.216c12.328,3.24,24.594,6.901,36.56,11.275c8.432,3.082,15.687,2.681,22.858-2.713
	c3.077-2.314,6.529-4.147,9.89-6.061c16.887-9.614,16.456-26.113,0.166-36.977c-13.834-9.227-26.958-13.131-42.907-5.369
	c-8.56,4.166-18.316,6.037-27.683,8.329c-7.858,1.923-15.323,0.532-17.823-8.355c-2.544-9.044,2.181-14.818,10.782-17.605
	c6.853-2.22,13.732-4.36,21.786-6.913c-7.846-9.159-26.394-12.181-16.122-27.966c8.364-12.853,19.124-3.17,31.01,2.202
	c-1.619-8.858-2.233-15.882-4.265-22.468c-3.049-9.886,0.949-16.583,9.586-19.119c8.98-2.637,14.583,3.363,16.703,11.836
	c3.093,12.361,6.151,24.767,8.324,37.308c1.594,9.201,5.61,15.655,14.406,19.188c3.562,1.431,6.643,4.039,10.184,5.543
	c5.159,2.191,8.844,9.143,16.398,3.799c7.991-5.652,15.972-8.649,16.201-22.018c0.301-17.558-4.112-30.4-18.346-40.645
	c-7.481-5.384-13.703-12.525-20.456-18.912c-6.195-5.857-8.053-12.591-2.185-19.462c6.164-7.217,13.222-7.024,20.228-0.684
	c5.607,5.073,11.308,10.043,17.772,15.772c5.012-10.484-2.644-27.755,15.529-27.589c17.616,0.161,11.831,16.346,15.4,27.898
	c5.206-4.713,9.372-8.486,13.54-12.257c11.098-10.043,16.894-10.986,23.863-3.883c6.223,6.344,4.31,14.841-5.3,23.803
	c-8.488,7.915-16.523,16.384-25.539,23.639c-6.83,5.496-9.42,11.663-8.379,20.096c0.518,4.197,0.076,8.512,0.082,12.773
	c0.015,10.88,8.311,21.535,18.621,23.311c1.971,0.339,4.379-0.906,6.382-1.851c17.541-8.271,33.19-17.704,33.767-40.65
	c0.219-8.709,2.374-18.005,6.213-25.764c2.554-5.161,9.628-11.211,14.728-11.256c7.717-0.067,12.738,6.732,11.207,15.684
	c-1.344,7.849-3.015,15.642-4.751,24.535c11.408-1.908,23.124-15.227,31.494-0.097c7.894,14.269-6.954,18.602-16.969,26.706
	c7.469,2.535,13.328,4.534,19.195,6.514c12.035,4.061,17.443,10.782,14.289,18.604c-4.481,11.112-13.563,9.844-22.557,7.303
	c-10.787-3.046-21.654-5.994-32.111-9.971c-8.664-3.294-16.25-3.546-23.863,2.29c-3.343,2.563-7.781,3.747-10.974,6.443
	c-4.004,3.381-10.241,7.704-10.199,11.562c0.095,8.782-2.733,18.021,9.708,24.969c15.874,8.864,29.675,12.535,46.386,4.544
	c7.238-3.462,15.354-5.202,23.192-7.265c10.733-2.825,19.193,0.688,20.736,9.067c1.842,10.009-4.338,14.786-13.137,17.275
	C352.07,267.574,345.966,269.61,337.605,272.208z M249.795,223.91c0.148-14.395-12.051-27.025-26.22-27.145
	c-14.524-0.123-26.54,11.788-26.714,26.478c-0.175,14.733,11.656,27.016,26.039,27.036C237.43,250.3,249.646,238.322,249.795,223.91
	z"/>
</svg>
