<?xml version="1.0" encoding="utf-8"?>
<!-- Generator: Adobe Illustrator 17.0.0, SVG Export Plug-In . SVG Version: 6.00 Build 0)  -->
<!DOCTYPE svg PUBLIC "-//W3C//DTD SVG 1.1//EN" "http://www.w3.org/Graphics/SVG/1.1/DTD/svg11.dtd">
<svg version="1.1" id="Layer_1" xmlns="http://www.w3.org/2000/svg" xmlns:xlink="http://www.w3.org/1999/xlink" x="0px" y="0px"
	 width="449.27px" height="449.27px" viewBox="0 0 449.27 449.27" enable-background="new 0 0 449.27 449.27" xml:space="preserve">
<g>
	<g>
		<g>
			<path fill="#600502" d="M449.27,376.901c0,39.968-32.401,72.369-72.369,72.369H72.369C32.401,449.27,0,416.869,0,376.901V72.369
				C0,32.401,32.401,0,72.369,0H376.9c39.968,0,72.369,32.401,72.369,72.369V376.901z"/>
		</g>
	</g>
	<path fill="#FFFFFF" d="M329.53,269.417c8.953,8.23,23.52,11.586,15.506,25.017c-7.849,13.154-18.026,2.729-29.059-1.027
		c1.559,7.264,2.94,13.174,4.078,19.129c1.595,8.349,1.091,16.007-8.774,18.9c-7.256,2.128-13.204-3.097-15.689-13.332
		c-2.01-8.279-4.887-16.49-5.671-24.891c-1.293-13.849-8.407-21.814-20.391-28.38c-10.048-5.505-18.393-8.447-27.224,0.349
		c-2.405,2.395-4.585,5.83-5.18,9.095c-3.546,19.46,1.955,35.201,19.134,46.547c6.132,4.05,11.318,9.752,16.283,15.286
		c4.775,5.322,5.651,11.686,0.281,17.261c-5.214,5.412-11.161,5.822-17.025,0.624c-5.492-4.869-10.963-9.76-17.419-15.511
		c-3.174,10.388,2.612,25.222-13.744,25.576c-16.926,0.366-10.352-15.101-13.977-25.715c-6.429,5.755-11.566,10.329-16.676,14.933
		c-5.907,5.322-12.216,6.202-18.001,0.378c-6.238-6.28-5.033-12.764,1.15-18.598c7.246-6.838,14.046-14.255,21.887-20.327
		c10.136-7.849,14.056-17.021,13.627-30.099c-0.372-11.332-1.593-20.271-13.737-23.596c-3.588-0.983-8.057-1.728-11.307-0.473
		c-17.735,6.848-29.471,18.431-30.309,38.996c-0.298,7.304-3.105,14.553-5.126,21.726c-2.095,7.436-7.108,12.241-14.955,10.013
		c-7.67-2.177-11.424-7.789-8.923-16.508c1.826-6.366,2.784-12.98,4.349-20.549c-10.599,1.814-21.24,13.801-29.237,0.225
		c-8.259-14.021,8.118-16.622,15.143-25.16c-7.134-2.21-13.059-4.058-18.993-5.881c-8.25-2.535-13.196-7.544-10.668-16.607
		c2.534-9.085,10.003-9.474,17.318-7.552c11.332,2.978,22.606,6.343,33.605,10.364c7.751,2.833,14.419,2.464,21.011-2.494
		c2.828-2.127,6.001-3.812,9.091-5.571c15.522-8.837,15.126-24.003,0.153-33.989c-12.716-8.481-24.779-12.07-39.439-4.935
		c-7.868,3.829-16.836,5.549-25.446,7.656c-7.223,1.768-14.085,0.489-16.383-7.68c-2.338-8.313,2.005-13.62,9.911-16.182
		c6.299-2.041,12.622-4.008,20.025-6.354c-7.212-8.419-24.261-11.197-14.819-25.706c7.688-11.814,17.578-2.914,28.504,2.024
		c-1.488-8.142-2.053-14.598-3.92-20.652c-2.803-9.087,0.872-15.243,8.811-17.574c8.254-2.424,13.404,3.091,15.353,10.879
		c2.843,11.362,5.654,22.765,7.651,34.293c1.465,8.457,5.157,14.39,13.242,17.637c3.274,1.315,6.106,3.713,9.361,5.095
		c4.742,2.014,8.129,8.404,15.073,3.492c7.345-5.195,14.681-7.95,14.892-20.239c0.277-16.139-3.78-27.943-16.863-37.36
		c-6.876-4.949-12.596-11.513-18.803-17.384c-5.694-5.384-7.402-11.573-2.008-17.889c5.666-6.634,12.153-6.456,18.593-0.629
		c5.154,4.663,10.394,9.231,16.336,14.497c4.607-9.637-2.43-25.512,14.274-25.359c16.192,0.148,10.875,15.025,14.155,25.643
		c4.785-4.332,8.615-7.8,12.446-11.266c10.201-9.231,15.529-10.098,21.934-3.569c5.72,5.831,3.962,13.642-4.872,21.879
		c-7.802,7.275-15.188,15.06-23.475,21.729c-6.278,5.052-8.659,10.72-7.702,18.472c0.476,3.858,0.07,7.824,0.075,11.741
		c0.014,10.001,7.639,19.795,17.116,21.427c1.812,0.312,4.025-0.833,5.866-1.701c16.123-7.603,30.508-16.273,31.038-37.365
		c0.201-8.005,2.182-16.55,5.711-23.682c2.348-4.744,8.85-10.305,13.538-10.346c7.093-0.062,11.709,6.188,10.301,14.416
		c-1.235,7.215-2.771,14.378-4.367,22.552c10.486-1.754,21.255-13.996,28.949-0.089c7.256,13.116-6.392,17.099-15.598,24.548
		c6.865,2.33,12.251,4.168,17.644,5.988c11.062,3.733,16.033,9.911,13.134,17.1c-4.119,10.214-12.467,9.048-20.734,6.713
		c-9.915-2.8-19.904-5.51-29.516-9.165c-7.964-3.028-14.937-3.259-21.934,2.105c-3.073,2.356-7.152,3.444-10.087,5.922
		c-3.68,3.108-9.413,7.081-9.375,10.628c0.087,8.072-2.512,16.565,8.923,22.951c14.591,8.148,27.277,11.522,42.637,4.177
		c6.653-3.182,14.113-4.782,21.318-6.678c9.866-2.597,17.642,0.632,19.06,8.334c1.693,9.2-3.987,13.591-12.075,15.879
		C342.826,265.158,337.215,267.029,329.53,269.417z M248.817,225.023c0.136-13.232-11.077-24.841-24.101-24.951
		c-13.35-0.113-24.395,10.835-24.555,24.338c-0.161,13.542,10.714,24.833,23.935,24.851
		C237.451,249.28,248.68,238.27,248.817,225.023z"/>
</g>
</svg>
