<?xml version="1.0" encoding="utf-8"?>
<!-- Generator: Adobe Illustrator 17.0.0, SVG Export Plug-In . SVG Version: 6.00 Build 0)  -->
<!DOCTYPE svg PUBLIC "-//W3C//DTD SVG 1.1//EN" "http://www.w3.org/Graphics/SVG/1.1/DTD/svg11.dtd">
<svg version="1.1" id="Layer_1" xmlns="http://www.w3.org/2000/svg" xmlns:xlink="http://www.w3.org/1999/xlink" x="0px" y="0px"
	 width="446.978px" height="446.978px" viewBox="0 0 446.978 446.978" enable-background="new 0 0 446.978 446.978"
	 xml:space="preserve">
<g>
	<path fill="#600502" d="M446.978,374.978c0,39.764-32.236,72-72,72H72c-39.765,0-72-32.236-72-72V72C0,32.235,32.236,0,72,0
		h302.978c39.764,0,72,32.235,72,72V374.978z"/>
</g>
<path fill="#FFFFFF" d="M160.967,302.402c-12.582-10.18-27.591-17.332-34.264-29.18c-6.182-10.978-3.452-26.977-4.825-42.825
	c-3.53-1.363-10.004-3.444-16.097-6.332c-6.513-3.087-13.159-6.279-18.885-10.574c-16.994-12.747-17.498-26.926-2.036-41.161
	c2.882-2.653,5.886-5.177,9.035-7.937c-5.923-5.329-11.786-9.672-16.497-15.031c-10.556-12.004-10.257-25.574,2.901-34.395
	c11.782-7.899,25.225-15.053,38.919-18.078c72.068-15.921,143.086-11.304,212.122,15.554c9.99,3.887,19.54,9.743,28.101,16.254
	c10.427,7.932,17.18,18.223,11.35,32.562c-0.879,2.16-0.291,5.538,0.799,7.779c8.272,16.999,7.639,21.927-5.17,34.99
	c-1.371,1.398-2.681,2.857-3.905,4.165c10.142,20.083,8.27,29.027-11.628,40.426c-15.2,8.708-31.82,14.938-48.371,22.529
	c1.807,1.941,3.88,4.251,6.04,6.476c12.295,12.661,10.914,22.962-4.718,30.232c-6.946,3.23-11.192,7.751-16.181,13.79
	c-9.387,11.359-23.113,19.157-35.162,28.269c-2.157,1.631-4.908,2.49-7.414,3.643c-11.429,5.258-22.541,10.247-33.638-1.505
	c-2.583-2.735-8.396-2.192-12.478-3.787c-8.668-3.388-19.087-4.412-20.384-17.389c-0.28-2.793-6.331-5.138-9.879-7.45
	C160.17,317.865,153.434,311.828,160.967,302.402z M244.124,167.944c7.655,0,15.327,0.312,22.962-0.088
	c7.621-0.399,15.405-0.687,22.761-2.486c13.212-3.23,26.781-6.18,39.06-11.756c16.754-7.609,17.455-20.645,2.632-31.333
	c-6.128-4.418-13.041-8.169-20.131-10.764c-52.891-19.359-107.381-23.759-162.815-15.249c-12.519,1.922-25.236,5.811-36.565,11.415
	c-14.733,7.289-15.43,19.655-2.277,29.372c7.954,5.876,17.185,10.539,26.499,13.967C171.01,163.82,207.393,167.34,244.124,167.944z
	 M334.887,190.323c-0.388-1.203-0.775-2.407-1.163-3.61c-1.094-0.143-2.223-0.532-3.274-0.38c-2.374,0.344-4.71,0.945-7.058,1.458
	c-70.055,15.274-138.755,10.115-206.315-13.407c-3.67-1.277-8.019-0.603-12.053-0.837c0.624,5.228-0.659,12.437,2.277,15.263
	c5.851,5.633,13.539,10.382,21.309,12.832c53.515,16.869,107.704,15.256,161.795,3.328
	C305.572,201.626,320.078,195.287,334.887,190.323z M147.943,236.634c-0.516,1.872-1.034,3.742-1.55,5.614
	c8.809,3.535,17.345,8.208,26.477,10.392c27.299,6.532,55.28,6.901,82.566,1.731c24.204-4.587,47.793-12.669,71.378-20.085
	c5.23-1.645,9.301-6.969,13.907-10.6c-0.59-0.969-1.18-1.937-1.772-2.906C276.73,243.066,212.854,245.92,147.943,236.634z
	 M155.022,276.044c3.304,1.727,6.982,3.989,10.914,5.65c27.429,11.588,56.308,16.717,85.844,16.812
	c12.225,0.04,24.697-2.748,36.561-6.04c3.909-1.084,8.872-7.874,8.749-11.916c-0.227-7.452-6.798-8.297-13.64-7.246
	c-13.099,2.012-26.288,4.735-39.447,4.778C214.45,278.181,184.894,276.82,155.022,276.044z M270.132,318.702
	c-32.746-4.158-65.598-8.33-98.085-12.454C179.049,324.543,241.748,332.813,270.132,318.702z M188.02,333.314
	c15.926,13.897,57.014,15.818,67.257,4.272C233.44,336.199,211.215,334.787,188.02,333.314z"/>
</svg>
