<?xml version="1.0" encoding="utf-8"?>
<!-- Generator: Adobe Illustrator 17.0.0, SVG Export Plug-In . SVG Version: 6.00 Build 0)  -->
<!DOCTYPE svg PUBLIC "-//W3C//DTD SVG 1.1//EN" "http://www.w3.org/Graphics/SVG/1.1/DTD/svg11.dtd">
<svg version="1.1" id="Layer_1" xmlns="http://www.w3.org/2000/svg" xmlns:xlink="http://www.w3.org/1999/xlink" x="0px" y="0px"
	 width="446.978px" height="446.978px" viewBox="0 0 446.978 446.978" enable-background="new 0 0 446.978 446.978"
	 xml:space="preserve">
<g>
	<path fill="#600502" d="M446.977,374.978c0,39.764-32.235,72-72,72H72c-39.765,0-72-32.236-72-72V72C0,32.235,32.235,0,72,0
		h302.978c39.765,0,72,32.235,72,72V374.978z"/>
</g>
<path fill="#FFFFFF" d="M166.702,295.163c-11.428-9.246-25.06-15.742-31.121-26.503c-5.615-9.971-3.135-24.502-4.382-38.897
	c-3.206-1.238-9.086-3.128-14.62-5.751c-5.916-2.804-11.952-5.703-17.153-9.604c-15.435-11.578-15.893-24.456-1.849-37.385
	c2.618-2.41,5.346-4.702,8.206-7.209c-5.38-4.84-10.705-8.785-14.984-13.652c-9.588-10.903-9.316-23.228,2.635-31.24
	c10.701-7.174,22.911-13.672,35.349-16.42c65.457-14.461,129.961-10.267,192.664,14.127c9.074,3.53,17.748,8.849,25.523,14.763
	c9.471,7.204,15.604,16.551,10.309,29.575c-0.798,1.962-0.264,5.03,0.726,7.065c7.513,15.44,6.938,19.916-4.696,31.78
	c-1.245,1.27-2.435,2.595-3.547,3.783c9.212,18.241,7.511,26.364-10.561,36.718c-13.806,7.909-28.901,13.568-43.934,20.462
	c1.641,1.763,3.524,3.861,5.486,5.882c11.167,11.5,9.913,20.856-4.285,27.459c-6.309,2.934-10.165,7.04-14.697,12.525
	c-8.526,10.317-20.993,17.4-31.937,25.676c-1.959,1.481-4.458,2.262-6.734,3.309c-10.381,4.776-20.473,9.307-30.552-1.367
	c-2.346-2.484-7.626-1.991-11.333-3.44c-7.873-3.077-17.336-4.007-18.514-15.794c-0.254-2.537-5.75-4.667-8.973-6.767
	C165.978,309.208,159.86,303.725,166.702,295.163z M242.231,173.039c6.953,0,13.921,0.283,20.856-0.08
	c6.922-0.362,13.992-0.624,20.673-2.258c12-2.934,24.324-5.613,35.477-10.678c15.217-6.911,15.854-18.751,2.391-28.459
	c-5.566-4.013-11.845-7.42-18.284-9.777c-48.039-17.583-97.531-21.58-147.88-13.85c-11.371,1.746-22.921,5.278-33.211,10.368
	c-13.382,6.62-14.015,17.852-2.068,26.678c7.224,5.337,15.609,9.572,24.068,12.686C175.823,169.293,208.869,172.49,242.231,173.039z
	 M324.668,193.365c-0.352-1.093-0.704-2.186-1.056-3.279c-0.994-0.13-2.019-0.483-2.974-0.345c-2.156,0.312-4.278,0.858-6.411,1.324
	c-63.629,13.873-126.027,9.187-187.39-12.177c-3.333-1.16-7.283-0.548-10.947-0.76c0.567,4.748-0.599,11.296,2.068,13.863
	c5.314,5.116,12.297,9.43,19.354,11.655c48.606,15.322,97.824,13.857,146.954,3.023
	C298.042,203.631,311.217,197.874,324.668,193.365z M154.872,235.428c-0.469,1.7-0.939,3.399-1.408,5.099
	c8.001,3.211,15.754,7.455,24.048,9.439c24.795,5.933,50.209,6.268,74.992,1.572c21.984-4.166,43.409-11.507,64.831-18.243
	c4.75-1.494,8.448-6.33,12.631-9.628c-0.536-0.88-1.072-1.759-1.609-2.639C271.846,241.27,213.829,243.862,154.872,235.428z
	 M161.302,271.223c3.001,1.569,6.342,3.623,9.913,5.132c24.913,10.525,51.143,15.184,77.97,15.27
	c11.104,0.036,22.432-2.496,33.207-5.486c3.55-0.985,8.058-7.152,7.946-10.823c-0.206-6.768-6.174-7.536-12.389-6.581
	c-11.897,1.827-23.877,4.301-35.829,4.34C215.279,273.164,188.434,271.928,161.302,271.223z M265.853,309.968
	c-29.742-3.777-59.581-7.566-89.088-11.312C183.125,315.273,240.073,322.785,265.853,309.968z M191.273,323.24
	c14.465,12.622,51.784,14.367,61.088,3.88C232.527,325.86,212.34,324.578,191.273,323.24z"/>
</svg>
