<?xml version="1.0" encoding="utf-8"?>
<!-- Generator: Adobe Illustrator 17.0.0, SVG Export Plug-In . SVG Version: 6.00 Build 0)  -->
<!DOCTYPE svg PUBLIC "-//W3C//DTD SVG 1.1//EN" "http://www.w3.org/Graphics/SVG/1.1/DTD/svg11.dtd">
<svg version="1.1" id="Layer_1" xmlns="http://www.w3.org/2000/svg" xmlns:xlink="http://www.w3.org/1999/xlink" x="0px" y="0px"
	 width="446.978px" height="446.978px" viewBox="0 0 446.978 446.978" enable-background="new 0 0 446.978 446.978"
	 xml:space="preserve">
<g>
	<path fill="#600502" d="M446.978,374.978c0,39.764-32.236,72-72,72H72c-39.765,0-72-32.236-72-72V72C0,32.235,32.236,0,72,0
		h302.978c39.764,0,72,32.235,72,72V374.978z"/>
</g>
<g>
	<path fill="#FFFFFF" d="M302.93,223.86c-0.347,44.416-35.882,79.73-79.788,79.292c-44.365-0.442-78.871-35.765-78.669-80.529
		c0.199-44.057,35.874-78.973,80.448-78.739C267.947,144.112,303.27,180.325,302.93,223.86z"/>
	<path fill="#FFFFFF" d="M131.631,176.967c-2.487,6.048-4.43,10.774-6.814,16.572c-13.822-5.839-27.157-10.811-39.75-17.236
		c-3.345-1.707-4.414-7.874-6.528-11.993c4.557-1.457,9.889-5.199,13.53-3.962C105.123,164.786,117.603,170.908,131.631,176.967z"/>
	<path fill="#FFFFFF" d="M125.711,255.502c2.669,6.366,4.543,10.837,7.021,16.747c-14.175,5.715-28.098,11.835-42.449,16.682
		c-2.823,0.954-10.128-2.656-10.397-4.789c-0.463-3.668,1.948-9.941,4.965-11.419C97.845,266.358,111.499,261.339,125.711,255.502z"
		/>
	<path fill="#FFFFFF" d="M177.119,315.527c5.878,2.46,10.615,4.442,16.57,6.934c-5.899,14.001-11.018,27.587-17.507,40.485
		c-1.511,3.002-7.678,3.663-11.702,5.4c-1.41-4.437-5.036-9.627-3.831-13.178C165.077,342.114,171.108,329.606,177.119,315.527z"/>
	<path fill="#FFFFFF" d="M253.59,124.837c6.029-14.328,10.83-27.411,17.163-39.704c1.753-3.401,8.061-4.454,12.279-6.585
		c1.389,4.403,4.979,9.559,3.776,13.078c-4.572,13.382-10.69,26.236-16.402,39.691C264.384,128.997,259.627,127.163,253.59,124.837z
		"/>
	<path fill="#FFFFFF" d="M255.751,321.643c5.552-2.371,10.236-4.371,16.634-7.103c5.746,14.365,11.776,27.922,16.309,41.963
		c0.999,3.096-3.31,7.906-5.175,11.927c-3.652-1.893-9.211-2.873-10.628-5.836C266.632,349.511,261.564,335.858,255.751,321.643z"/>
	<path fill="#FFFFFF" d="M315.925,270.445c2.493-5.964,4.557-10.904,7.028-16.817c14.044,5.932,27.317,10.926,39.895,17.291
		c3.042,1.539,3.787,7.613,5.59,11.602c-4.062,1.567-8.882,5.38-12.055,4.311C343.016,282.326,330.141,276.361,315.925,270.445z"/>
	<path fill="#FFFFFF" d="M191.618,125.708c-6.253,2.467-11.036,4.355-16.678,6.582c-5.745-14.137-11.71-27.134-16.046-40.654
		c-1.101-3.431,2.985-8.525,4.688-12.855c3.896,2.071,9.796,3.179,11.337,6.384C181.088,97.997,185.904,111.478,191.618,125.708z"/>
	<path fill="#FFFFFF" d="M313.993,175.168c15.107-6.177,28.041-12.057,41.447-16.522c3.292-1.096,8.124,2.429,12.248,3.83
		c-1.9,4.225-2.676,10.593-5.903,12.286c-10.865,5.698-22.367,10.467-34.07,14.195C316.22,192.619,319.418,180.709,313.993,175.168z
		"/>
	<path fill="#FFFFFF" d="M227.981,119.515c-4.446,0-7.635,0-12.257,0c0-4.251-0.776-8.432,0.216-12.138
		c1.008-3.766,3.76-7.065,5.748-10.568c2.098,3.363,4.951,6.496,6.072,10.157C228.797,110.357,227.981,114.315,227.981,119.515z"/>
	<path fill="#FFFFFF" d="M157.101,301.714c-5.164,4.732-8.98,8.858-13.469,12.03c-1.766,1.248-6.284,1.417-7.313,0.195
		c-1.356-1.611-1.623-5.87-0.395-7.588c3.21-4.491,7.489-8.22,12.679-13.653C151.48,295.75,153.87,298.285,157.101,301.714z"/>
	<path fill="#FFFFFF" d="M154.561,148.125c-3.134,3.064-5.462,5.339-9.443,9.229c-4.439-5.237-8.531-9.48-11.831-14.268
		c-1.17-1.697-1.314-6.269-0.356-6.825c2.131-1.238,6.074-1.962,7.811-0.765C145.254,138.603,148.971,142.86,154.561,148.125z"/>
	<path fill="#FFFFFF" d="M290.039,144.663c5.5-4.761,9.123-8.728,13.54-11.368c2.187-1.307,5.835-0.174,8.821-0.145
		c-0.246,2.656,0.408,5.941-0.919,7.843c-3.135,4.495-7.213,8.331-12.058,13.709C296.06,151.106,293.874,148.766,290.039,144.663z"
		/>
	<path fill="#FFFFFF" d="M293.167,298.831c3.328-3.319,5.66-5.646,9.261-9.236c4.529,5.231,8.515,9.285,11.759,13.863
		c1.242,1.754,1.755,6.302,0.922,6.805c-2.161,1.307-6.108,2.354-7.807,1.215C302.699,308.39,298.893,304.115,293.167,298.831z"/>
	<path fill="#FFFFFF" d="M337.712,212.877c5.096,3.824,8.686,6.519,12.277,9.214c-4.055,1.748-8.12,4.874-12.163,4.843
		c-3.733-0.029-7.442-3.439-11.161-5.361C329.819,219.089,332.975,216.606,337.712,212.877z"/>
	<path fill="#FFFFFF" d="M123.394,230.777c-9.417,0-15.08,0.738-20.334-0.401c-1.842-0.4-2.683-5.414-3.98-8.323
		c5.756-0.619,11.579-1.97,17.234-1.461C118.304,220.773,119.885,225.507,123.394,230.777z"/>
	<path fill="#FFFFFF" d="M234.396,337.7c-3.941,5.493-6.461,9.007-8.981,12.521c-1.836-4.731-4.616-9.359-5.143-14.233
		c-0.303-2.802,3.045-5.998,4.75-9.016C227.846,330.205,230.672,333.438,234.396,337.7z"/>
</g>
</svg>
