<?xml version="1.0" encoding="utf-8"?>
<!-- Generator: Adobe Illustrator 17.0.0, SVG Export Plug-In . SVG Version: 6.00 Build 0)  -->
<!DOCTYPE svg PUBLIC "-//W3C//DTD SVG 1.1//EN" "http://www.w3.org/Graphics/SVG/1.1/DTD/svg11.dtd">
<svg version="1.1" id="Layer_1" xmlns="http://www.w3.org/2000/svg" xmlns:xlink="http://www.w3.org/1999/xlink" x="0px" y="0px"
	 width="446.978px" height="446.978px" viewBox="0 0 446.978 446.978" enable-background="new 0 0 446.978 446.978"
	 xml:space="preserve">
<g>
	<path fill="#B27000" d="M446.978,374.978c0,39.764-32.236,72-72,72H72c-39.765,0-72-32.236-72-72V72C0,32.235,32.236,0,72,0
		h302.978c39.764,0,72,32.235,72,72V374.978z"/>
</g>
<g>
	<path fill="#FFFFFF" d="M308.685,213.879c-0.372,47.634-38.482,85.506-85.568,85.036c-47.579-0.474-84.585-38.356-84.368-86.362
		c0.214-47.249,38.473-84.694,86.276-84.443C271.167,128.354,309.049,167.19,308.685,213.879z"/>
	<path fill="#FFFFFF" d="M124.976,163.589c-2.667,6.486-4.751,11.555-7.308,17.773c-14.824-6.262-29.124-11.594-42.629-18.485
		c-3.588-1.83-4.734-8.445-7.001-12.862c4.887-1.563,10.605-5.576,14.511-4.249C96.548,150.526,109.932,157.091,124.976,163.589z"/>
	<path fill="#FFFFFF" d="M118.628,247.813c2.862,6.827,4.872,11.622,7.53,17.96c-15.202,6.129-30.133,12.693-45.525,17.89
		c-3.028,1.023-10.861-2.848-11.15-5.136c-0.497-3.934,2.089-10.661,5.324-12.246C88.743,259.455,103.386,254.072,118.628,247.813z"
		/>
	<path fill="#FFFFFF" d="M173.76,312.187c6.304,2.638,11.383,4.763,17.77,7.436c-6.326,15.016-11.816,29.586-18.775,43.418
		c-1.62,3.22-8.235,3.928-12.55,5.792c-1.512-4.759-5.401-10.324-4.109-14.132C160.845,340.7,167.313,327.285,173.76,312.187z"/>
	<path fill="#FFFFFF" d="M255.771,107.683c6.466-15.366,11.614-29.397,18.407-42.58c1.88-3.647,8.645-4.777,13.168-7.062
		c1.49,4.722,5.339,10.251,4.049,14.025c-4.903,14.352-11.465,28.137-17.59,42.567C267.346,112.143,262.245,110.177,255.771,107.683
		z"/>
	<path fill="#FFFFFF" d="M258.088,318.745c5.954-2.542,10.978-4.688,17.839-7.618c6.162,15.405,12.629,29.945,17.491,45.002
		c1.072,3.32-3.55,8.479-5.549,12.791c-3.917-2.03-9.879-3.082-11.398-6.259C269.757,348.633,264.322,333.991,258.088,318.745z"/>
	<path fill="#FFFFFF" d="M322.622,263.839c2.674-6.396,4.887-11.694,7.538-18.035c15.061,6.362,29.296,11.717,42.785,18.544
		c3.262,1.651,4.062,8.165,5.995,12.443c-4.357,1.681-9.526,5.77-12.928,4.623C351.675,276.58,337.867,270.183,322.622,263.839z"/>
	<path fill="#FFFFFF" d="M189.309,108.616c-6.706,2.646-11.836,4.671-17.886,7.059c-6.161-15.161-12.558-29.1-17.208-43.599
		c-1.18-3.679,3.201-9.143,5.027-13.786c4.178,2.221,10.506,3.409,12.158,6.846C178.017,78.898,183.181,93.356,189.309,108.616z"/>
	<path fill="#FFFFFF" d="M320.549,161.66c16.202-6.625,30.072-12.93,44.449-17.719c3.531-1.176,8.712,2.605,13.135,4.108
		c-2.037,4.531-2.87,11.361-6.331,13.176c-11.652,6.11-23.987,11.226-36.538,15.224C322.937,180.374,326.367,167.601,320.549,161.66
		z"/>
	<path fill="#FFFFFF" d="M228.306,101.974c-4.768,0-8.188,0-13.145,0c0-4.559-0.832-9.042,0.232-13.017
		c1.081-4.039,4.032-7.576,6.164-11.333c2.25,3.607,5.31,6.966,6.512,10.893C229.181,92.154,228.306,96.399,228.306,101.974z"/>
	<path fill="#FFFFFF" d="M152.292,297.372c-5.538,5.075-9.631,9.499-14.444,12.902c-1.894,1.338-6.739,1.52-7.843,0.209
		c-1.454-1.728-1.74-6.296-0.424-8.137c3.443-4.816,8.031-8.815,13.598-14.642C146.264,290.976,148.826,293.696,152.292,297.372z"/>
	<path fill="#FFFFFF" d="M149.568,132.657c-3.361,3.286-5.858,5.725-10.127,9.898c-4.761-5.617-9.149-10.167-12.688-15.301
		c-1.255-1.82-1.409-6.723-0.382-7.319c2.285-1.328,6.514-2.105,8.377-0.82C139.586,122.446,143.573,127.012,149.568,132.657z"/>
	<path fill="#FFFFFF" d="M294.86,128.945c5.898-5.106,9.784-9.36,14.521-12.191c2.346-1.402,6.258-0.186,9.46-0.155
		c-0.264,2.848,0.438,6.371-0.986,8.412c-3.363,4.821-7.735,8.935-12.932,14.703C301.317,135.854,298.973,133.345,294.86,128.945z"
		/>
	<path fill="#FFFFFF" d="M298.214,294.281c3.569-3.559,6.07-6.055,9.932-9.905c4.857,5.61,9.131,9.958,12.611,14.867
		c1.332,1.881,1.882,6.758,0.988,7.298c-2.317,1.402-6.55,2.525-8.373,1.303C308.437,304.533,304.355,299.948,298.214,294.281z"/>
	<path fill="#FFFFFF" d="M345.986,202.1c5.465,4.101,9.315,6.991,13.166,9.881c-4.349,1.875-8.709,5.227-13.044,5.194
		c-4.004-0.031-7.981-3.688-11.97-5.749C337.522,208.763,340.906,206.099,345.986,202.1z"/>
	<path fill="#FFFFFF" d="M116.143,221.297c-10.099,0-16.172,0.792-21.807-0.43c-1.976-0.428-2.877-5.807-4.269-8.926
		c6.173-0.664,12.417-2.113,18.482-1.566C110.684,210.568,112.379,215.645,116.143,221.297z"/>
	<path fill="#FFFFFF" d="M235.186,335.966c-4.226,5.891-6.929,9.659-9.632,13.428c-1.969-5.074-4.951-10.038-5.515-15.264
		c-0.324-3.005,3.265-6.433,5.094-9.67C228.162,327.928,231.192,331.395,235.186,335.966z"/>
</g>
</svg>
