<?xml version="1.0" encoding="utf-8"?>
<!-- Generator: Adobe Illustrator 17.0.0, SVG Export Plug-In . SVG Version: 6.00 Build 0)  -->
<!DOCTYPE svg PUBLIC "-//W3C//DTD SVG 1.1//EN" "http://www.w3.org/Graphics/SVG/1.1/DTD/svg11.dtd">
<svg version="1.1" id="Layer_1" xmlns="http://www.w3.org/2000/svg" xmlns:xlink="http://www.w3.org/1999/xlink" x="0px" y="0px"
	 width="446.978px" height="446.978px" viewBox="0 0 446.978 446.978" enable-background="new 0 0 446.978 446.978"
	 xml:space="preserve">
<g>
	<path fill="#5D5777" d="M446.978,374.978c0,39.764-32.236,72-72,72H72c-39.765,0-72-32.236-72-72V72C0,32.235,32.236,0,72,0
		h302.978c39.764,0,72,32.236,72,72V374.978z"/>
</g>
<circle fill="none" stroke="#FFFFFF" stroke-width="10" stroke-miterlimit="10" cx="223.489" cy="197.585" r="119.318"/>
<path fill="none" stroke="#FFFFFF" stroke-width="10" stroke-linecap="round" stroke-linejoin="round" stroke-miterlimit="10" d="
	M155.053,188.905c0,0,9.639,9.093,19.632,9.093s18.948-9.093,18.948-9.093"/>
<path fill="none" stroke="#FFFFFF" stroke-width="10" stroke-linecap="round" stroke-linejoin="round" stroke-miterlimit="10" d="
	M251.632,188.905c0,0,9.639,9.093,19.632,9.093s18.948-9.093,18.948-9.093"/>
<line fill="none" stroke="#FFFFFF" stroke-width="10" stroke-linecap="round" stroke-linejoin="round" stroke-miterlimit="10" x1="255.098" y1="238.548" x2="222.098" y2="238.548"/>
<text transform="matrix(1 0 0 1 171.9959 397.486)" fill="#FFFFFF" font-family="'DroidSans'" font-size="45">Calm</text>
<rect x="-369.011" y="-74.496" fill="#B27000" width="83" height="116"/>
<rect x="-369.011" y="70.782" fill="#596D5A" width="83" height="116"/>
<rect x="-369.011" y="208.597" fill="#776F57" width="83" height="116"/>
<rect x="-369.011" y="354.493" fill="#5D5777" width="83" height="116"/>
</svg>
