<?xml version="1.0" encoding="utf-8"?>
<!-- Generator: Adobe Illustrator 17.0.0, SVG Export Plug-In . SVG Version: 6.00 Build 0)  -->
<!DOCTYPE svg PUBLIC "-//W3C//DTD SVG 1.1//EN" "http://www.w3.org/Graphics/SVG/1.1/DTD/svg11.dtd">
<svg version="1.1" id="Layer_1" xmlns="http://www.w3.org/2000/svg" xmlns:xlink="http://www.w3.org/1999/xlink" x="0px" y="0px"
	 width="446.978px" height="446.978px" viewBox="0 0 446.978 446.978" enable-background="new 0 0 446.978 446.978"
	 xml:space="preserve">
<g>
	<path fill="#600502" d="M446.978,374.978c0,39.764-32.236,72-72,72H72c-39.765,0-72-32.236-72-72V72C0,32.236,32.236,0,72,0
		h302.978c39.764,0,72,32.236,72,72V374.978z"/>
</g>
<text transform="matrix(1 0 0 1 124.9418 397.486)" fill="#FFFFFF" font-family="'DroidSans'" font-size="45">Energized</text>
<circle fill="none" stroke="#FFFFFF" stroke-width="10" stroke-miterlimit="10" cx="223.489" cy="160.277" r="119.318"/>
<circle fill="#FFFFFF" cx="174.343" cy="154.272" r="14.685"/>
<circle fill="#FFFFFF" cx="270.921" cy="154.272" r="14.685"/>
<path fill="#FFFFFF" stroke="#FFFFFF" stroke-width="10" stroke-linecap="round" stroke-linejoin="round" stroke-miterlimit="10" d="
	M174.343,196.493h25.219h71.359c0,0,1.584,47.554-47.554,47.554S174.343,196.493,174.343,196.493z"/>
<path fill="none" stroke="#FFFFFF" stroke-width="10" stroke-linecap="round" stroke-linejoin="round" stroke-miterlimit="10" d="
	M222.635,231.97"/>
<path fill="none" stroke="#FFFFFF" stroke-width="10" stroke-linecap="round" stroke-linejoin="round" stroke-miterlimit="10" d="
	M200.034,282.706"/>
<path fill="none" stroke="#FFFFFF" stroke-width="10" stroke-linecap="round" stroke-linejoin="round" stroke-miterlimit="10" d="
	M246.229,279.624"/>
<path fill="none" stroke="#FFFFFF" stroke-width="10" stroke-linecap="round" stroke-linejoin="round" stroke-miterlimit="10" d="
	M246.229,239.805"/>
<ellipse fill="#FFFFFF" cx="223.489" cy="322.083" rx="81.26" ry="3.528"/>
<path fill="none" stroke="#FFFFFF" stroke-width="10" stroke-linecap="round" stroke-linejoin="round" stroke-miterlimit="10" d="
	M137.904,280.105c-18.667-18.504-36.667-38.504-41.333-57.838"/>
<path fill="none" stroke="#FFFFFF" stroke-width="10" stroke-linecap="round" stroke-linejoin="round" stroke-miterlimit="10" d="
	M113.486,286.382c-11.838-11.735-23.252-24.418-26.212-36.678"/>
</svg>
