<?xml version="1.0" encoding="utf-8"?>
<!-- Generator: Adobe Illustrator 17.0.0, SVG Export Plug-In . SVG Version: 6.00 Build 0)  -->
<!DOCTYPE svg PUBLIC "-//W3C//DTD SVG 1.1//EN" "http://www.w3.org/Graphics/SVG/1.1/DTD/svg11.dtd">
<svg version="1.1" id="Layer_1" xmlns="http://www.w3.org/2000/svg" xmlns:xlink="http://www.w3.org/1999/xlink" x="0px" y="0px"
	 width="446.978px" height="446.978px" viewBox="0 0 446.978 446.978" enable-background="new 0 0 446.978 446.978"
	 xml:space="preserve">
<g>
	<path fill="#596D5A" d="M446.978,374.978c0,39.764-32.236,72-72,72H72c-39.764,0-72-32.236-72-72V72C0,32.235,32.236,0,72,0
		h302.978c39.764,0,72,32.235,72,72V374.978z"/>
</g>
<text transform="matrix(1 0 0 1 151.2428 397.486)" fill="#FFFFFF" font-family="'DroidSans'" font-size="45">Groovy</text>
<circle fill="none" stroke="#FFFFFF" stroke-width="10" stroke-miterlimit="10" cx="223.489" cy="197.585" r="119.318"/>
<circle fill="#FFFFFF" cx="174.343" cy="197.585" r="14.685"/>
<circle fill="#FFFFFF" cx="270.921" cy="197.585" r="14.685"/>
<path fill="none" stroke="#FFFFFF" stroke-width="10" stroke-linecap="round" stroke-linejoin="round" stroke-miterlimit="10" d="
	M204.069,263.112c0,0,29.705,14.767,53.64,7.496s38.77-35.565,38.77-35.565"/>
<path fill="#FFFFFF" stroke="#FFFFFF" stroke-width="10" stroke-linecap="round" stroke-linejoin="round" stroke-miterlimit="10" d="
	M131.317,173.808h25.219h71.359c0,0,1.584,47.554-47.554,47.554S131.317,173.808,131.317,173.808z"/>
<path fill="#FFFFFF" stroke="#FFFFFF" stroke-width="10" stroke-linecap="round" stroke-linejoin="round" stroke-miterlimit="10" d="
	M227.901,173.808h25.219h71.359c0,0,1.584,47.554-47.554,47.554S227.901,173.808,227.901,173.808z"/>
<rect x="-417.011" y="-74.909" fill="#B27000" width="83" height="116"/>
<rect x="-417.011" y="70.369" fill="#596D5A" width="83" height="116"/>
<rect x="-417.011" y="208.184" fill="#776F57" width="83" height="116"/>
<rect x="-417.011" y="354.08" fill="#5D5777" width="83" height="116"/>
</svg>
