<?xml version="1.0" encoding="utf-8"?>
<!-- Generator: Adobe Illustrator 17.0.0, SVG Export Plug-In . SVG Version: 6.00 Build 0)  -->
<!DOCTYPE svg PUBLIC "-//W3C//DTD SVG 1.1//EN" "http://www.w3.org/Graphics/SVG/1.1/DTD/svg11.dtd">
<svg version="1.1" id="Layer_1" xmlns="http://www.w3.org/2000/svg" xmlns:xlink="http://www.w3.org/1999/xlink" x="0px" y="0px"
	 width="446.978px" height="446.978px" viewBox="0 0 446.978 446.978" enable-background="new 0 0 446.978 446.978"
	 xml:space="preserve">
<g>
	<path fill="#600502" d="M446.978,374.978c0,39.764-32.236,72-72,72H72c-39.764,0-72-32.236-72-72V72C0,32.236,32.236,0,72,0
		h302.978c39.764,0,72,32.236,72,72V374.978z"/>
</g>
<text transform="matrix(1 0 0 1 140.487 397.486)" fill="#FFFFFF" font-family="'DroidSans'" font-size="45">Psyched</text>
<circle fill="none" stroke="#FFFFFF" stroke-width="10" stroke-miterlimit="10" cx="223.489" cy="197.585" r="119.318"/>
<g>
	<circle fill="none" stroke="#FFFFFF" stroke-width="9" stroke-miterlimit="10" cx="174.343" cy="176.895" r="42.703"/>
	<circle fill="none" stroke="#FFFFFF" stroke-width="9" stroke-miterlimit="10" cx="174.343" cy="176.895" r="34.703"/>
	<circle fill="none" stroke="#FFFFFF" stroke-width="9" stroke-miterlimit="10" cx="174.343" cy="176.895" r="26.314"/>
	<circle fill="none" stroke="#FFFFFF" stroke-width="9" stroke-miterlimit="10" cx="174.343" cy="176.895" r="17.648"/>
</g>
<g>
	<circle fill="none" stroke="#FFFFFF" stroke-width="9" stroke-miterlimit="10" cx="269.681" cy="176.895" r="42.703"/>
	<circle fill="none" stroke="#FFFFFF" stroke-width="9" stroke-miterlimit="10" cx="269.681" cy="176.895" r="34.703"/>
	<circle fill="none" stroke="#FFFFFF" stroke-width="9" stroke-miterlimit="10" cx="269.681" cy="176.895" r="26.314"/>
	<circle fill="none" stroke="#FFFFFF" stroke-width="9" stroke-miterlimit="10" cx="269.681" cy="176.895" r="17.648"/>
</g>
<path fill="none" stroke="#FFFFFF" stroke-width="10" stroke-linecap="round" stroke-linejoin="round" stroke-miterlimit="10" d="
	M148.616,221.134h38.654h109.374c0,0,2.428,72.887-72.887,72.887S148.616,221.134,148.616,221.134z"/>
<path fill="none" stroke="#FFFFFF" stroke-width="10" stroke-linecap="round" stroke-linejoin="round" stroke-miterlimit="10" d="
	M222.635,231.97"/>
<path fill="none" stroke="#FFFFFF" stroke-width="10" stroke-linecap="round" stroke-linejoin="round" stroke-miterlimit="10" d="
	M200.034,282.706"/>
<path fill="none" stroke="#FFFFFF" stroke-width="10" stroke-linecap="round" stroke-linejoin="round" stroke-miterlimit="10" d="
	M246.229,239.805"/>
<line fill="none" stroke="#FFFFFF" stroke-width="10" stroke-linecap="round" stroke-linejoin="round" stroke-miterlimit="10" x1="174.343" y1="223.489" x2="174.343" y2="273.518"/>
<line fill="none" stroke="#FFFFFF" stroke-width="10" stroke-linecap="round" stroke-linejoin="round" stroke-miterlimit="10" x1="200.034" y1="223.489" x2="200.034" y2="291.191"/>
<line fill="none" stroke="#FFFFFF" stroke-width="10" stroke-linecap="round" stroke-linejoin="round" stroke-miterlimit="10" x1="223.489" y1="223.489" x2="223.489" y2="293.994"/>
<line fill="none" stroke="#FFFFFF" stroke-width="10" stroke-linecap="round" stroke-linejoin="round" stroke-miterlimit="10" x1="249.09" y1="221.134" x2="249.09" y2="289.624"/>
<line fill="none" stroke="#FFFFFF" stroke-width="10" stroke-linecap="round" stroke-linejoin="round" stroke-miterlimit="10" x1="273.756" y1="221.134" x2="273.756" y2="277.364"/>
</svg>
