<?xml version="1.0" encoding="utf-8"?>
<!-- Generator: Adobe Illustrator 17.0.0, SVG Export Plug-In . SVG Version: 6.00 Build 0)  -->
<!DOCTYPE svg PUBLIC "-//W3C//DTD SVG 1.1//EN" "http://www.w3.org/Graphics/SVG/1.1/DTD/svg11.dtd">
<svg version="1.1" id="Layer_1" xmlns="http://www.w3.org/2000/svg" xmlns:xlink="http://www.w3.org/1999/xlink" x="0px" y="0px"
	 width="446.978px" height="446.978px" viewBox="0 0 446.978 446.978" enable-background="new 0 0 446.978 446.978"
	 xml:space="preserve">
<g>
	<path fill="#776F57" d="M446.978,374.978c0,39.764-32.236,72-72,72H72c-39.765,0-72-32.236-72-72V72C0,32.235,32.236,0,72,0
		h302.978c39.764,0,72,32.236,72,72V374.978z"/>
</g>
<text transform="matrix(1 0 0 1 157.7247 397.486)" fill="#FFFFFF" font-family="'DroidSans'" font-size="45">Sleepy</text>
<circle fill="none" stroke="#FFFFFF" stroke-width="10" stroke-miterlimit="10" cx="223.489" cy="197.585" r="119.318"/>
<path fill="none" stroke="#FFFFFF" stroke-width="10" stroke-linecap="round" stroke-linejoin="round" stroke-miterlimit="10" d="
	M290.211,191.992c0,0-9.639-9.093-19.632-9.093c-9.993,0-18.948,9.093-18.948,9.093"/>
<path fill="none" stroke="#FFFFFF" stroke-width="10" stroke-linecap="round" stroke-linejoin="round" stroke-miterlimit="10" d="
	M193.633,191.992c0,0-9.639-9.093-19.632-9.093s-18.948,9.093-18.948,9.093"/>
<ellipse fill="#FFFFFF" cx="223.489" cy="242.876" rx="14.685" ry="28.919"/>
<rect x="-349.011" y="-80.503" fill="#B27000" width="83" height="116"/>
<rect x="-349.011" y="64.776" fill="#596D5A" width="83" height="116"/>
<rect x="-349.011" y="202.591" fill="#776F57" width="83" height="116"/>
<rect x="-349.011" y="348.487" fill="#5D5777" width="83" height="116"/>
</svg>
