<?xml version="1.0" encoding="utf-8"?>
<!-- Generator: Adobe Illustrator 17.0.0, SVG Export Plug-In . SVG Version: 6.00 Build 0)  -->
<!DOCTYPE svg PUBLIC "-//W3C//DTD SVG 1.1//EN" "http://www.w3.org/Graphics/SVG/1.1/DTD/svg11.dtd">
<svg version="1.1" id="Layer_1" xmlns="http://www.w3.org/2000/svg" xmlns:xlink="http://www.w3.org/1999/xlink" x="0px" y="0px"
	 width="446.978px" height="446.978px" viewBox="0 0 446.978 446.978" enable-background="new 0 0 446.978 446.978"
	 xml:space="preserve">
<g>
	<path fill="#600502" d="M446.978,374.978c0,39.765-32.235,72-72,72H72c-39.765,0-72-32.235-72-72V72C0,32.235,32.236,0,72,0
		h302.978c39.765,0,72,32.235,72,72V374.978z"/>
</g>
<text transform="matrix(1 0 0 1 171.7873 389.9372)" fill="#FFFFFF" font-family="'DroidSans'" font-size="45">Tired</text>
<circle fill="none" stroke="#FFFFFF" stroke-width="10" stroke-miterlimit="10" cx="223.489" cy="197.585" r="119.318"/>
<circle fill="#FFFFFF" cx="174.343" cy="197.585" r="14.685"/>
<circle fill="#FFFFFF" cx="270.921" cy="197.585" r="14.685"/>
<path fill="none" stroke="#FFFFFF" stroke-width="10" stroke-linecap="round" stroke-linejoin="round" stroke-miterlimit="10" d="
	M270.921,262.568c0,0-24.131-22.762-49.146-22.762s-47.433,22.762-47.433,22.762"/>
<path fill="none" stroke="#FFFFFF" stroke-width="6" stroke-linecap="round" stroke-linejoin="round" stroke-miterlimit="10" d="
	M155.91,211.394c0,0,9.639,9.093,19.632,9.093s18.948-9.093,18.948-9.093"/>
<path fill="none" stroke="#FFFFFF" stroke-width="6" stroke-linecap="round" stroke-linejoin="round" stroke-miterlimit="10" d="
	M252.488,211.394c0,0,9.639,9.093,19.632,9.093c9.993,0,18.948-9.093,18.948-9.093"/>
</svg>
