<?xml version="1.0" encoding="utf-8"?>
<!-- Generator: Adobe Illustrator 17.0.0, SVG Export Plug-In . SVG Version: 6.00 Build 0)  -->
<!DOCTYPE svg PUBLIC "-//W3C//DTD SVG 1.1//EN" "http://www.w3.org/Graphics/SVG/1.1/DTD/svg11.dtd">
<svg version="1.1" id="Layer_1" xmlns="http://www.w3.org/2000/svg" xmlns:xlink="http://www.w3.org/1999/xlink" x="0px" y="0px"
	 width="446.978px" height="446.978px" viewBox="0 0 446.978 446.978" enable-background="new 0 0 446.978 446.978"
	 xml:space="preserve">
<g>
	<path fill="#596D5A" d="M446.978,374.978c0,39.764-32.236,72-72,72H72c-39.765,0-72-32.236-72-72V72C0,32.235,32.236,0,72,0
		h302.978c39.764,0,72,32.236,72,72V374.978z"/>
</g>
<text transform="matrix(1 0 0 1 165.3935 397.4867)" fill="#FFFFFF" font-family="'DroidSans'" font-size="45">Break</text>
<g>
	<g>
		<rect x="102.339" y="322.571" fill="#FFFFFF" width="242.299" height="8.077"/>
	</g>
	<g>
		<rect x="160.255" y="326.61" fill="#FFFFFF" width="126.468" height="11.13"/>
	</g>
	<g>
		<path fill="#FFFFFF" d="M223.489,330.074c-49.097,0-89.04-53.817-89.04-119.968c0-0.541,0.007-1.08,0.014-1.619l0.012-0.94
			h178.031l0.012,1.075c0.006,0.494,0.012,0.988,0.012,1.484C312.529,276.257,272.586,330.074,223.489,330.074z M135.642,208.729
			c-0.006,0.458-0.01,0.916-0.01,1.377c0,65.499,39.413,118.786,87.858,118.786s87.858-53.287,87.858-118.786
			c0-0.461-0.005-0.919-0.01-1.377H135.642z"/>
	</g>
	<g>
		<path fill="#FFFFFF" d="M135.058,208.139c-0.008,0.655-0.018,1.31-0.018,1.968c0,65.93,39.6,119.377,88.449,119.377
			s88.449-53.447,88.449-119.377c0-0.658-0.011-1.313-0.018-1.968H135.058z"/>
	</g>
	<g>
		<path fill="#FFFFFF" d="M223.489,317.061c-50.4,0-91.404-54.877-91.404-122.332c0-0.553,0.007-1.105,0.014-1.656l0.04-3.267
			h182.704l0.037,3.405c0.006,0.506,0.012,1.011,0.012,1.518C314.892,262.184,273.889,317.061,223.489,317.061z M137.999,195.716
			c0.39,63.743,38.591,115.435,85.49,115.435s85.1-51.692,85.49-115.435H137.999z"/>
	</g>
	<g>
		<path fill="#FFFFFF" d="M303.349,294.328c-0.002,0-0.002,0-0.003,0c-4.631-0.001-8.996-1.064-12.974-3.163
			c-0.175-0.094-0.337-0.186-0.497-0.279l-2.917-1.646l1.676-2.631c12.064-18.945,19.195-42.121,20.622-67.021l0.144-2.513
			l2.504-0.259c5.733-0.59,11.24,0.433,16.097,2.995c15.998,8.435,20.572,31.304,10.198,50.976
			C330.657,285.087,316.977,294.328,303.349,294.328z M295.364,286.958c2.498,0.968,5.174,1.459,7.982,1.46c0.001,0,0.002,0,0.003,0
			c11.464,0,23.091-8.002,29.623-20.386c8.853-16.79,5.387-36.077-7.728-42.993c-3.113-1.641-6.547-2.474-10.207-2.474
			c-0.018,0-0.036,0-0.053,0C313.248,246.257,306.499,268.399,295.364,286.958z"/>
	</g>
	<g>
		<g>
			<path fill="#FFFFFF" d="M174.692,176.029L174.692,176.029c2.891-3.187-2.711-24.484-9.12-37.304
				c-7.368-14.736-3.482-30.043,12.229-48.171l0,0c-13.947,16.094-13.107,33.201-6.944,45.527
				C177.307,148.981,180.456,169.676,174.692,176.029z"/>
		</g>
	</g>
	<g>
		<g>
			<path fill="#FFFFFF" d="M215.307,170.694L215.307,170.694c2.891-3.187-2.711-24.484-9.12-37.304
				c-7.368-14.736-3.482-30.043,12.229-48.171l0,0c-13.947,16.094-13.107,33.201-6.944,45.527
				C217.922,143.646,221.07,164.341,215.307,170.694z"/>
		</g>
	</g>
	<g>
		<g>
			<path fill="#FFFFFF" d="M251.947,176.029L251.947,176.029c2.891-3.187-2.711-24.484-9.12-37.304
				c-7.368-14.736-3.482-30.043,12.229-48.171l0,0c-13.947,16.094-13.107,33.201-6.944,45.527
				C254.562,148.981,257.711,169.676,251.947,176.029z"/>
		</g>
	</g>
</g>
</svg>
