<?xml version="1.0" encoding="utf-8"?>
<!-- Generator: Adobe Illustrator 17.0.0, SVG Export Plug-In . SVG Version: 6.00 Build 0)  -->
<!DOCTYPE svg PUBLIC "-//W3C//DTD SVG 1.1//EN" "http://www.w3.org/Graphics/SVG/1.1/DTD/svg11.dtd">
<svg version="1.1" id="Layer_1" xmlns="http://www.w3.org/2000/svg" xmlns:xlink="http://www.w3.org/1999/xlink" x="0px" y="0px"
	 width="446.978px" height="446.978px" viewBox="0 0 446.978 446.978" enable-background="new 0 0 446.978 446.978"
	 xml:space="preserve">
<g>
	<g>
		<path fill="#5D5777" d="M446.978,374.978c0,39.764-32.236,72-72,72H72c-39.765,0-72-32.236-72-72V72C0,32.235,32.236,0,72,0
			h302.978c39.764,0,72,32.236,72,72V374.978z"/>
	</g>
	<text transform="matrix(1 0 0 1 179.2031 397.4865)" fill="#FFFFFF" font-family="'DroidSans'" font-size="45">Chill</text>
	<g>
		<g>
			<path fill="#FFFFFF" d="M41.853,227.592c1.314-0.07,1.317-1.175,1.555-2.038c3.348-12.13,10.437-21.887,19.451-30.354
				c11.501-10.804,24.924-18.653,39.215-25.145c1.916-0.87,3.241-0.609,4.7,0.883c5.207,5.321,10.46,10.601,15.815,15.773
				c1.901,1.836,1.881,2.751-0.6,3.96c-8.103,3.949-15.697,8.725-22.455,14.739c-3.907,3.478-7.334,7.349-9.842,11.996
				c-3.108,5.76-3.169,11.492-0.128,17.282c2.454,4.675,5.89,8.55,9.796,12.03c9.656,8.6,20.903,14.546,32.714,19.548
				c3.965,1.679,3.985,1.722,1.138,4.861c-9.526,10.506-19.082,20.985-28.605,31.494c-1.235,1.362-2.244,2.53-4.45,1.479
				c-15.799-7.527-30.58-16.49-42.477-29.596c-6.521-7.185-11.501-15.268-14.18-24.674c-0.267-0.937-0.137-2.254-1.647-2.372
				C41.853,240.836,41.853,234.214,41.853,227.592z"/>
			<path fill="#FFFFFF" d="M405.125,247.458c-1.122,0.01-1.252,0.899-1.469,1.686c-4.253,15.407-14.143,26.769-26.279,36.483
				c-9.187,7.354-19.362,13.094-29.949,18.167c-2.03,0.973-3.324,0.813-4.873-0.915c-9.705-10.827-19.469-21.602-29.325-32.292
				c-2.08-2.255-1.487-3.08,1.047-4.114c12.103-4.938,23.531-11.062,33.383-19.805c3.464-3.074,6.495-6.52,8.92-10.5
				c4.097-6.725,4.107-13.397-0.085-20.051c-0.943-1.497-1.774-3.219-3.098-4.292c-4.633-3.752-5.426-8.552-5.129-14.178
				c0.398-7.545,0.141-15.128,0.075-22.693c-0.021-2.425,0.791-2.926,2.936-1.849c14.801,7.43,28.506,16.346,39.43,29.028
				c5.857,6.8,10.297,14.402,12.773,23.089c0.266,0.932,0.122,2.261,1.643,2.37C405.125,234.214,405.125,240.836,405.125,247.458z"
				/>
			<path fill="#FFFFFF" d="M257.556,159.448c-0.003-13.83-0.072-27.661,0.015-41.491c0.103-16.372,10.216-30.85,25.494-36.736
				c15.153-5.838,32.028-1.827,43.229,10.148c1.839,1.966,2.356,3.18-0.436,4.758c-4.771,2.697-8.819,6.367-12.318,10.571
				c-1.429,1.716-2.314,1.693-3.875,0.105c-5.437-5.531-11.947-7.152-19.117-4.002c-7.125,3.131-10.415,8.966-10.29,16.702
				c0.145,8.976-1.26,6.807,6.796,9.829c7.854,2.946,15.826,5.581,23.651,8.602c3.037,1.172,3.778,0.261,4.234-2.654
				c2.769-17.664,15.552-30.557,32.959-33.475c23.024-3.86,44.879,13.913,45.827,37.299c0.11,2.714,0.142,5.444-0.018,8.153
				c-0.368,6.196-5.388,10.853-11.442,10.772c-6.088-0.081-10.894-4.813-11.165-11.057c-0.087-2.006,0.009-4.02-0.045-6.028
				c-0.254-9.501-7.723-16.925-16.992-16.915c-9.474,0.01-16.971,7.429-17.007,17.211c-0.094,25.296-0.042,50.593-0.047,75.889
				c-0.001,2.837,0.056,5.675-0.003,8.511c-0.144,6.893-5.047,11.936-11.478,11.868c-6.343-0.068-11.102-4.989-11.194-11.756
				c-0.09-6.618-0.112-13.24,0.006-19.858c0.04-2.24-0.689-3.367-2.853-4.119c-9.374-3.258-18.709-6.634-28.011-10.093
				c-2.589-0.963-3.374-0.29-3.255,2.368c0.142,3.185,0.116,6.385-0.013,9.572c-0.259,6.422-5.234,11.227-11.422,11.167
				c-6.221-0.06-11.152-4.899-11.195-11.368C257.492,188.764,257.559,174.106,257.556,159.448z M280.271,159.012
				c0,2.831,0.071,5.665-0.026,8.493c-0.061,1.793,0.599,2.784,2.329,3.396c9.672,3.42,19.318,6.911,28.959,10.417
				c1.959,0.712,2.809,0.3,2.778-1.935c-0.079-5.779-0.063-11.561,0.007-17.34c0.02-1.664-0.598-2.599-2.16-3.155
				c-9.776-3.48-19.537-7.002-29.297-10.529c-1.774-0.641-2.671-0.262-2.619,1.806C280.316,153.112,280.261,156.063,280.271,159.012
				z"/>
			<path fill="#FFFFFF" d="M223.32,328.362c-33.629-0.197-66.673-4.326-98.778-14.745c-4.195-1.361-4.198-1.375-1.283-4.58
				c9.777-10.753,19.598-21.467,29.303-32.285c1.715-1.911,3.275-2.403,5.834-1.772c43.368,10.694,86.769,10.713,130.138-0.003
				c2.537-0.627,4.133-0.17,5.854,1.747c9.867,10.99,19.805,21.917,29.818,32.773c2.029,2.2,1.752,3.036-1.054,3.948
				c-21.9,7.117-44.367,11.361-67.264,13.437C245.057,327.864,234.205,328.451,223.32,328.362z"/>
			<path fill="#FFFFFF" d="M220.308,146.702c7.563-0.064,15.114,0.131,22.665,0.588c2.393,0.145,3.316,0.899,3.253,3.358
				c-0.139,5.43-0.131,10.867-0.004,16.298c0.058,2.467-0.796,3.372-3.287,3.206c-7.069-0.471-14.142-0.819-21.238-0.748
				c-26.989,0.27-53.432,3.899-79.025,12.739c-2.263,0.782-3.671,0.337-5.266-1.319c-4.917-5.102-9.995-10.049-14.988-15.077
				c-2.583-2.601-2.55-2.79,0.976-3.954c17.885-5.903,36.218-9.813,54.881-12.226C192.229,147.764,206.245,146.874,220.308,146.702z
				"/>
			<path fill="#FFFFFF" d="M267.935,239.066c-5.539,14.729-21.618,23.173-37.945,20.14c-4.43-0.823-8.724-2.09-12.86-3.88
				c-16.404-7.099-32.343-6.869-47.682,2.996c-0.38,0.244-0.835,0.372-1.482,0.652c-0.402-1.464,0.442-2.379,0.958-3.321
				c7.934-14.481,23.072-20.606,40.352-16.353c3.681,0.906,7.201,2.272,10.701,3.707c15.794,6.473,31.087,5.961,45.74-3.328
				c0.396-0.251,0.814-0.48,1.248-0.655C267.153,238.948,267.406,239.035,267.935,239.066z"/>
			<path fill="#FFFFFF" d="M122.358,225.037c2.812-10.333,14.99-19.765,26.33-20.898c7.952-0.795,15.629,0.427,22.85,3.63
				c17.055,7.563,33.594,7.808,49.636-2.635c0.265-0.172,0.654-0.152,1.258-0.279c0.024,1.487-0.772,2.525-1.38,3.585
				c-8.138,14.192-23.104,20.222-39.888,15.963c-3.306-0.839-6.586-1.928-9.723-3.265c-16.335-6.963-32.139-6.663-47.351,3.112
				C123.708,224.495,123.257,224.633,122.358,225.037z"/>
		</g>
	</g>
</g>
</svg>
