<?xml version="1.0" encoding="utf-8"?>
<!-- Generator: Adobe Illustrator 17.0.0, SVG Export Plug-In . SVG Version: 6.00 Build 0)  -->
<!DOCTYPE svg PUBLIC "-//W3C//DTD SVG 1.1//EN" "http://www.w3.org/Graphics/SVG/1.1/DTD/svg11.dtd">
<svg version="1.1" id="Layer_1" xmlns="http://www.w3.org/2000/svg" xmlns:xlink="http://www.w3.org/1999/xlink" x="0px" y="0px"
	 width="446.978px" height="446.978px" viewBox="0 0 446.978 446.978" enable-background="new 0 0 446.978 446.978"
	 xml:space="preserve">
<g>
	<g>
		<path fill="#B27000" d="M446.978,374.978c0,39.764-32.236,72-72,72H72c-39.765,0-72-32.236-72-72V72C0,32.235,32.236,0,72,0
			h302.978c39.764,0,72,32.236,72,72V374.978z"/>
	</g>
	<text transform="matrix(1 0 0 1 154.7582 397.4866)" fill="#FFFFFF" font-family="'DroidSans'" font-size="45">Dinner</text>
	<g>
		<path fill="#FAFCFC" d="M148.621,156.934c27.498,0,54.996-0.036,82.494,0.048c3.297,0.01,6.119-0.672,8.898-2.521
			c7.907-5.259,15.979-10.27,23.945-15.441c4.453-2.891,9.204-4.409,14.584-4.396c30.498,0.078,60.996,0.029,91.494,0.045
			c6.209,0.003,10.094,2.191,9.473,5.607c-0.948,5.212-5.358,5.27-9.398,5.29c-14.332,0.069-28.665,0.009-42.997,0.034
			c-6.45,0.011-10.549,2.043-9.862,5.164c1.136,5.156,5.714,4.876,9.663,4.902c14.332,0.092,28.665,0.023,42.997,0.045
			c6.059,0.009,9.77,2.188,9.687,5.59c-0.082,3.354-3.696,5.317-9.884,5.322c-14.166,0.01-28.331,0.019-42.497-0.011
			c-2.529-0.005-5.019,0.091-7.282,1.345c-1.501,0.831-2.794,1.954-2.791,3.842c0.002,1.893,1.332,2.944,2.812,3.826
			c2.116,1.261,4.462,1.201,6.798,1.201c14.499,0.001,28.998-0.014,43.497,0.009c5.678,0.009,9.283,2.147,9.336,5.434
			c0.054,3.329-3.542,5.546-9.187,5.555c-14.499,0.024-28.998-0.013-43.497,0.024c-4.023,0.01-8.484-0.183-9.65,4.922
			c-0.703,3.077,3.561,5.259,9.848,5.273c13.999,0.032,27.998,0.01,41.997,0.01c1,0,2.002-0.029,2.999,0.019
			c3.57,0.173,7.196,1.15,7.331,5.201c0.149,4.472-3.72,5.591-7.4,5.63c-12.664,0.133-25.331,0.065-37.997,0.067
			c-18.332,0.003-36.664-0.054-54.996,0.032c-5.883,0.028-11.152-1.581-15.971-4.872c-1.513-1.033-3.207-1.846-4.577-3.038
			c-14.39-12.52-31.012-15.279-49.844-14.841c-47.138,1.096-94.319,0.362-141.482,0.361c-9.908,0-11.821-1.952-11.825-12.052
			c-0.001-2.833-0.043-5.667,0.01-8.499c0.12-6.4,2.966-9.107,9.779-9.114C92.958,156.917,120.789,156.934,148.621,156.934z"/>
		<path fill="#FAFCFC" d="M222.198,296.319c-52.135,0-104.27,0-156.404-0.001c-1.499,0-3.006,0.078-4.495-0.048
			c-5.311-0.449-6.964-2.939-5.461-8.106c3.121-10.736,15.591-21.327,26.655-22.047c44.581-2.901,88.55-10.695,132.781-16.392
			c6.933-0.893,13.844-1.967,20.785-2.789c6.577-0.779,9.594,2.023,9.7,8.707c0.161,10.124,0.161,10.124,10.317,10.124
			c41.308,0,82.616-0.003,123.923,0.003c9.095,0.001,11.616,2.502,11.64,11.481c0.009,3.331,0.08,6.665-0.021,9.993
			c-0.177,5.845-3.12,8.763-9.018,9.05c-1.496,0.073-2.998,0.024-4.497,0.024C326.134,296.319,274.166,296.319,222.198,296.319z"/>
	</g>
</g>
</svg>
