<?xml version="1.0" encoding="utf-8"?>
<!-- Generator: Adobe Illustrator 17.0.0, SVG Export Plug-In . SVG Version: 6.00 Build 0)  -->
<!DOCTYPE svg PUBLIC "-//W3C//DTD SVG 1.1//EN" "http://www.w3.org/Graphics/SVG/1.1/DTD/svg11.dtd">
<svg version="1.1" id="Layer_1" xmlns="http://www.w3.org/2000/svg" xmlns:xlink="http://www.w3.org/1999/xlink" x="0px" y="0px"
	 width="446.978px" height="446.978px" viewBox="0 0 446.978 446.978" enable-background="new 0 0 446.978 446.978"
	 xml:space="preserve">
<g>
	<path fill="#B27000" d="M446.978,374.978c0,39.764-32.236,72-72,72H72c-39.765,0-72-32.236-72-72V72C0,32.235,32.236,0,72,0
		h302.978c39.764,0,72,32.236,72,72V374.978z"/>
</g>
<text transform="matrix(1 0 0 1 137.9712 397.486)" fill="#FFFFFF" font-family="'DroidSans'" font-size="45">Morning</text>
<path fill="#FFFFFF" d="M82.232,140.154c8.498-6.184,17.396-10.982,26.812-14.729c8.595-3.42,17.359-6.419,26.073-9.536
	c3.604-1.289,4.737-3.262,3.725-6.924c-0.428-1.55-0.84-3.105-1.313-4.855c0.944-0.212,1.642-0.445,2.357-0.516
	c4.344-0.432,8.169-2.184,12.041-4.128c24.163-12.129,49.751-17.941,76.77-15.582c9.244,0.807,18.337,3.453,27.461,5.432
	c1.83,0.397,3.13,0.701,4.405-1.098c1.985-2.8,5.244-3.362,8.327-3.954c14.611-2.803,28.949-0.99,43.05,3.058
	c26.724,7.672,48.376,22.754,65.034,45.034c0.78,1.043,2.19,1.61,3.29,2.421c1.649,1.216,3.693,2.151,4.854,3.731
	c5.677,7.731,8.794,16.679,11.71,25.705c4.39,13.589,6.765,27.538,5.956,41.779c-0.742,13.054-2.212,26.08-3.771,39.069
	c-0.75,6.251-3.525,11.995-7.577,16.81c-7.813,9.284-15.726,18.503-23.99,27.383c-6.373,6.849-14.117,12.016-22.886,15.452
	c-14.213,5.569-28.149,11.98-43.202,15.094c-6.713,1.389-13.504,3.002-20.306,3.252c-20.991,0.771-42.023,2.028-62.982-0.645
	c-3.002-0.383-6.024-1.137-8.858-2.198c-5.309-1.988-7.348-6.198-5.987-11.698c1.401-5.659,4.913-10.114,8.617-14.373
	c9.973-11.468,21.749-20.923,33.946-29.871c1.542-1.131,1.867-2.36,2.251-4.153c0.909-4.237,2.25-8.433,3.908-12.442
	c1.223-2.955,3.223-5.589,5.183-8.88c-5.033-2.769-9.772-5.967-14.951-8.088c-7.814-3.2-14.412-7.885-19.67-14.327
	c-1.781-2.182-2.407-5.29-3.67-7.923c-0.353-0.736-0.992-1.68-1.675-1.859c-5.512-1.448-11.042-2.846-16.614-4.038
	c-4.099-0.877-8.269-1.419-12.406-2.114c-0.374-0.063-0.865-0.339-1.099-0.192c-3.065,1.922-5.811-0.427-8.687-0.529
	c-6.855-0.242-13.728-0.028-20.592,0.085c-5.144,0.084-10.288,0.244-15.426,0.486c-1.388,0.065-2.755,0.552-4.305,0.882
	c-2.255-4.1-6.504-3.83-10.279-3.754c-8.594,0.173-17.177,0.859-25.765,1.323c-12.591,0.681-25.177,1.554-37.778,1.906
	c-4.023,0.112-8.219-0.732-12.102-1.911c-7.456-2.263-9.851-7.898-6.749-15.073c2.948-6.818,7.94-12.167,13.347-17.025
	c5.966-5.359,12.344-10.257,18.46-15.454c0.666-0.566,0.678-1.839,1.178-2.675c0.714-1.194,1.442-2.454,2.445-3.383
	C82.336,143.697,84.657,142.715,82.232,140.154z M388.511,248.369c0.553-1.477,1.767-3.08,1.605-4.53
	c-2.397-21.416-14.006-36.335-35.915-40.822c-13-2.663-25.869-1.589-38.644,1.254c-17.517,3.897-33.896,10.539-48.487,21.159
	c-2.839,2.066-5.358,4.571-8.025,6.873c0.191,0.263,0.381,0.527,0.572,0.79c0.723-0.336,1.461-0.646,2.168-1.013
	c8.129-4.215,16.055-8.889,24.42-12.564c16.578-7.283,33.837-12.072,52.192-11.254c15.89,0.708,29.59,6.353,38.951,19.671
	C381.629,234.024,384.576,241.053,388.511,248.369z M382.659,255.531c2.978-2.881,3.026-3.038,1.904-6.683
	c-0.309-1.004-0.617-2.009-0.971-2.998c-4.454-12.444-11.406-22.885-23.479-29.204c-10.479-5.485-21.729-6.389-33.22-5.279
	c-17.94,1.733-34.546,7.9-50.608,15.739c-1.96,0.957-3.847,2.065-6.476,3.486c7.1-2.175,13.298-4.387,19.654-5.963
	c18.585-4.607,37.32-6.242,56.145-1.418c14.604,3.743,26.408,11.415,33.702,25.041C380.567,250.599,381.547,253.094,382.659,255.531
	z M392.015,234.215c0.089-0.473,0.242-1.004,0.275-1.543c0.029-0.469-0.004-0.968-0.135-1.417
	c-3.383-11.601-8.605-22.1-18.457-29.634c-11.125-8.507-23.984-10.36-37.484-9.184c-14.335,1.249-27.814,5.695-40.849,11.562
	c-12.413,5.586-24.133,12.369-34.763,20.924c-0.902,0.726-1.453,1.886-2.167,2.845c16.355-11.388,21.319-14.476,35.271-19.815
	c18.582-7.111,37.664-11.344,57.714-8.33c13.474,2.025,25.1,7.576,32.798,19.274C387.321,223.612,389.402,229,392.015,234.215z
	 M259.746,181.683c0.25,0.202,0.5,0.404,0.75,0.607c0.576-0.681,1.206-1.324,1.72-2.048c5.978-8.417,13.804-14.772,22.501-20.142
	c20.452-12.626,42.948-18.057,66.739-19.157c15.991-0.739,28.082,5.764,36.861,18.909c0.376,0.563,0.838,1.068,1.26,1.599
	c0.23-0.124,0.46-0.248,0.69-0.372c-1.992-4.504-3.868-9.063-6.01-13.494c-1.947-4.029-3.867-8.272-9.392-8.38
	c-0.171-0.003-0.329-0.209-0.509-0.251c-5.167-1.215-10.281-3.02-15.517-3.504c-11.161-1.031-22.103,1.056-32.847,3.95
	c-21.535,5.802-41.363,14.845-57.109,31.215C265.576,174.053,262.778,177.981,259.746,181.683z M296.958,157.404
	c0.053,0.267,0.105,0.533,0.158,0.8c17.391-2.83,34.781-2.992,52.132,0.116c12.53,2.245,24.44,6.187,34.642,14.109
	c3.298,2.561,6.199,5.635,9.277,8.469c0.021-0.073,0.088-0.174,0.065-0.247c-0.112-0.362-0.231-0.723-0.378-1.072
	c-5.166-12.277-14.252-20.299-27.072-23.495c-16.629-4.145-33.568-5.325-50.586-2.789
	C309.048,154.213,303.033,156.009,296.958,157.404z M262.769,264.068c10.27,4.691,19.208,10.789,24.65,20.998
	c5.704,10.699,4.137,21.304-0.527,32.167c1.944-0.682,3.817-1.423,4.961-2.779c5.471-6.49,9.059-13.693,7.408-22.566
	c-1.034-5.554-3.871-10.172-7.751-14.102C283.587,269.762,273.85,265.397,262.769,264.068z M314.039,149.671
	c10.179,0,19.534-0.406,28.835,0.129c7.397,0.426,14.794,1.673,22.07,3.151c9.262,1.881,17.104,6.601,23.656,13.571
	c-1.11-2.355-2.353-4.572-3.828-6.62c-7.799-10.83-18.274-16.68-31.755-16.156c-7.044,0.274-14.099,1.033-21.075,2.068
	C326.145,146.674,320.454,148.259,314.039,149.671z M336.287,223.859c-0.077,0.284-0.154,0.568-0.232,0.851
	c0.792,0.261,1.59,0.508,2.376,0.786c6.626,2.341,12.814,5.48,18.268,9.973c8.689,7.156,14.252,16.334,17.611,26.978
	c0.26,0.824,1.117,2.028,1.75,2.062c2.216,0.118,4.606-2.839,4.266-5.144c-0.234-1.59-0.669-3.185-1.252-4.685
	c-5.223-13.426-15.003-22.148-28.396-26.881C346.003,226.145,341.092,225.153,336.287,223.859z M222.516,152.374
	c6.199-21.036,15.022-40.899,27.858-58.948c-8.338-2.614-6.741-2.859-10.104,3.471C231.044,114.263,225.889,133.008,222.516,152.374
	z M275.779,317.681c2.293,0,4.206,0.159,6.072-0.07c0.874-0.107,2.02-0.766,2.423-1.511c3.834-7.068,5.719-14.525,4.018-22.599
	c-1.126-5.343-4.733-11.761-8.01-14.05C285.534,292.941,284.857,305.661,275.779,317.681z M183.27,185.271
	c0.404-0.13,0.808-0.26,1.213-0.39c-1.391-7.864-2.288-15.856-4.271-23.568c-4.837-18.816-14.333-35.088-28.346-48.613
	c-1.544-1.491-3.627-2.424-5.46-3.615c-0.208,0.259-0.417,0.517-0.625,0.776C168.997,129.657,178.591,156.24,183.27,185.271z
	 M256.77,95.531c-2.319-1.669-3.649-0.996-4.995,0.939c-11.956,17.191-20.423,35.986-26.015,56.119
	c-0.357,1.287-0.701,2.579-0.995,3.881c-0.284,1.26-0.494,2.536-0.737,3.805C231.173,136.75,242.398,115.386,256.77,95.531z
	 M368.634,271.006c0.411-1.74,0.879-3.23,1.101-4.755c0.672-4.622-1.349-8.561-3.353-12.481
	c-4.628-9.055-11.337-16.092-19.852-20.877c3.976,5.756,8.497,11.528,12.149,17.804C362.35,257.004,365.158,263.815,368.634,271.006
	z M184.85,166.686c0.019-0.279,0.093-0.568,0.049-0.837c-2.756-16.824-8.599-32.419-18.667-46.279
	c-3.554-4.893-7.628-9.337-13.045-12.266c-0.964-0.521-2.195-0.547-3.303-0.801C168.39,122.951,179.251,143.251,184.85,166.686z
	 M141.637,118.818c11.303,7.706,20.267,17.274,27.697,28.356c-5.5-13.019-13.037-24.551-24.124-33.862
	C143.98,115.207,142.906,116.862,141.637,118.818z M90.741,141.814c-0.039,0.271-0.078,0.542-0.117,0.814
	c6.616,2.345,13.394,4.318,19.811,7.117c11.363,4.956,20.609,12.384,25.446,24.307c2.311,5.698,2.871,11.639,2.689,17.717
	c-0.026,0.863,0.511,1.744,0.787,2.616c0.3-0.106,0.6-0.213,0.9-0.319c-0.171-17.74-6.135-32.633-21.556-42.716
	C110.169,145.771,100.854,142.447,90.741,141.814z M93.512,139.646c17.623,3.108,32.2,10.377,41.84,25.883
	c0.075-0.48,0.187-0.703,0.119-0.828c-7.602-13.898-18.513-23.582-34.302-27.22C98.269,136.813,95.99,137.287,93.512,139.646z
	 M119.6,160.369c8.985,8.665,15.521,18.21,12.012,31.674c1.674,0.267,3.116,0.496,4.567,0.727
	C137.746,178.65,131.492,166.443,119.6,160.369z M114.686,154.669c-6.605-4.084-13.703-6.749-21.162-8.509
	c-4.325-1.02-6.319-0.244-9.024,3.803C94.933,149.839,104.948,151.379,114.686,154.669z"/>
</svg>
