<?xml version="1.0" encoding="utf-8"?>
<!-- Generator: Adobe Illustrator 17.0.0, SVG Export Plug-In . SVG Version: 6.00 Build 0)  -->
<!DOCTYPE svg PUBLIC "-//W3C//DTD SVG 1.1//EN" "http://www.w3.org/Graphics/SVG/1.1/DTD/svg11.dtd">
<svg version="1.1" id="Layer_1" xmlns="http://www.w3.org/2000/svg" xmlns:xlink="http://www.w3.org/1999/xlink" x="0px" y="0px"
	 width="446.978px" height="446.978px" viewBox="0 0 446.978 446.978" enable-background="new 0 0 446.978 446.978"
	 xml:space="preserve">
<g>
	<g>
		<path fill="#596D5A" d="M446.978,374.978c0,39.764-32.236,72-72,72H72c-39.765,0-72-32.236-72-72V72C0,32.235,32.236,0,72,0
			h302.978c39.764,0,72,32.236,72,72V374.978z"/>
	</g>
	<text transform="matrix(1 0 0 1 170.9852 397.4867)" fill="#FFFFFF" font-family="'DroidSans'" font-size="45">Party</text>
	<path fill="#FFFFFF" d="M302.785,72.605c11.107,0,21.655,0,32.472,0c-0.373,4.281-0.752,8.628-1.173,13.467
		c-10.621-2.505-20.89-4.927-31.16-7.35c-0.213,0.268-0.427,0.535-0.64,0.803c5.74,9.248,11.481,18.496,17.446,28.106
		c-4.376,2.023-8.623,3.985-13.244,6.121c-2.879-9.295-5.712-18.441-8.545-27.587c-0.35,0.015-0.701,0.031-1.051,0.046
		c0,4.209,0.02,8.418-0.004,12.626c-0.08,14.28-0.141,28.56-0.283,42.84c-0.053,5.32-0.4,10.636-0.461,15.956
		c-0.293,25.609-0.552,51.219-0.788,76.828c-0.223,24.245-0.379,48.491-0.642,72.736c-0.024,2.216,0.445,3.246,2.812,4.039
		c2.782,0.932,5.214,2.928,7.775,4.5c2.376,1.458,3.85,3.432,2.534,6.271c-1.242,2.679-5.339,4.007-8.162,2.877
		c-0.464-0.186-0.914-0.434-1.328-0.716c-2.166-1.478-3.868-1.643-5.967,0.604c-2.996,3.206-7.099,3.138-10.965,0.653
		c-0.686-0.441-2.044-0.849-2.487-0.501c-4.806,3.774-9.146,1.962-13.548-0.772c-0.671-0.417-1.952-0.564-2.592-0.202
		c-4.29,2.426-7.541,1.917-10.541-1.862c-0.55-0.693-1.114-1.375-1.657-2.044c-5.823,3.792-8.488,3.671-14.043-0.375
		c-0.624-0.455-1.637-0.891-2.293-0.706c-6.723,1.89-12.026-0.445-16.403-5.425c-1.061-1.207-1.792-1.827-3.512-1.036
		c-1.193,0.548-2.79,0.467-4.169,0.316c-6.109-0.667-11.983-1.98-15.841-7.424c-1.178-1.663-2.524-2.266-4.604-2.111
		c-6.521,0.486-9.499-1.463-12.311-7.406c-0.325-0.687-1.403-1.201-2.233-1.431c-2.408-0.667-4.908-1.012-7.296-1.734
		c-4.209-1.274-5.882-4.541-6.277-8.834c-6.081,0.49-10.602-2.541-14.636-6.532c-0.668-0.661-1.483-1.831-1.318-2.558
		c0.637-2.793-1.216-3.102-3.063-4.025c-3.936-1.967-7.932-3.995-11.396-6.659c-2.063-1.587-3.654-4.251-4.549-6.756
		c-0.828-2.317-1.908-3.769-4.067-4.82c-4.865-2.37-8.388-6.126-10.373-11.178c-1.211-3.082-0.115-5.136,3.057-4.772
		c5.427,0.621,10.855,1.695,16.109,3.19c2.998,0.853,4.844,0.942,7.278-1.536c20.923-21.302,42.043-42.41,63.098-63.583
		c15.34-15.426,30.652-30.879,46.013-46.284c6.995-7.015,14.059-13.963,21.136-20.894c1.797-1.76,3.058-3.345-0.29-4.993
		c7.726-8.254,15.302-16.347,23.393-24.991c-11.29,0-21.693,0-32.383,0c0.483-4.216,0.979-8.545,1.518-13.25
		c10.373,2.521,20.341,4.944,30.31,7.366c0.175-0.215,0.351-0.43,0.526-0.645c-5.647-9.527-11.294-19.054-17.07-28.798
		c4.162-1.916,8.237-3.792,12.754-5.872c3.385,10.601,6.725,21.061,10.065,31.522c0.271,0.079,0.542,0.158,0.813,0.238
		c5.269-9.549,10.537-19.098,16.02-29.035c3.87,2.838,7.401,5.429,11.252,8.253C318.166,55.672,310.628,63.972,302.785,72.605z
		 M288.586,305.35c0.17-0.404,0.339-0.808,0.509-1.212c-0.882-0.617-1.683-1.447-2.659-1.819
		c-13.122-4.993-25.367-11.591-36.75-19.808c-28.769-20.768-47.483-48.132-54.588-83.123c-0.512-2.52-1.005-5.044-1.554-7.805
		c-0.642,0.457-1.002,0.644-1.275,0.918c-7.926,7.949-15.878,15.874-23.711,23.914c-0.791,0.812-1.206,2.325-1.21,3.515
		c-0.03,8.222,2.038,16.008,5.273,23.51c5.87,13.612,14.935,24.928,25.543,35.069c4.132,3.95,8.184,7.894,13.807,10.124
		c18.535,7.352,37.614,12.477,57.37,15.025C275.722,304.481,282.169,304.8,288.586,305.35z M230.706,154.186
		c-0.604,0.46-1.032,0.714-1.373,1.055c-6.004,6.008-12.053,11.974-17.924,18.111c-0.745,0.779-1.023,2.609-0.699,3.712
		c4.146,14.125,9.719,27.667,17.324,40.299c13.206,21.936,30.316,39.854,53.529,51.376c2.389,1.186,4.899,2.126,8.008,3.462
		c0-10.34,0.052-19.94-0.077-29.537c-0.014-1.007-0.918-2.186-1.718-2.971c-22.181-21.781-39.857-46.71-52.605-75.092
		C233.655,161.225,232.251,157.798,230.706,154.186z M289.709,198.287c0.213-0.739,0.358-1.012,0.362-1.287
		c0.133-8.905,0.312-17.81,0.301-26.715c-0.001-1.142-0.777-2.474-1.569-3.396c-10.864-12.652-18.157-27.19-22.945-43.07
		c-0.361-1.197-0.715-2.396-1.124-3.766c-6.074,5.973-11.771,11.691-17.62,17.249c-1.515,1.44-1.658,2.659-0.958,4.507
		c5.651,14.922,13.581,28.449,24.382,40.241C276.152,188.18,282.329,193.643,289.709,198.287z M290.902,93.55
		c-0.734,0.646-1.213,0.908-1.46,1.311c-3.001,4.89-6.005,9.778-8.893,14.735c-0.33,0.567-0.163,1.622,0.114,2.314
		c2.883,7.187,5.828,14.35,8.791,21.505c0.148,0.359,0.616,0.585,1.448,1.337C290.902,120.754,290.902,107.399,290.902,93.55z
		 M143.561,241.513c2.831,3.031,5.352,5.731,8.209,8.791c-0.313-5.658-0.589-10.669-0.87-15.747
		C148.329,236.994,145.937,239.262,143.561,241.513z"/>
</g>
</svg>
