<?xml version="1.0" encoding="utf-8"?>
<!-- Generator: Adobe Illustrator 17.0.0, SVG Export Plug-In . SVG Version: 6.00 Build 0)  -->
<!DOCTYPE svg PUBLIC "-//W3C//DTD SVG 1.1//EN" "http://www.w3.org/Graphics/SVG/1.1/DTD/svg11.dtd">
<svg version="1.1" id="Layer_1" xmlns="http://www.w3.org/2000/svg" xmlns:xlink="http://www.w3.org/1999/xlink" x="0px" y="0px"
	 width="446.978px" height="446.978px" viewBox="0 0 446.978 446.978" enable-background="new 0 0 446.978 446.978"
	 xml:space="preserve">
<g>
	<g>
		<path fill="#776F57" d="M446.978,374.978c0,39.764-32.236,72-72,72H72c-39.765,0-72-32.236-72-72V72C0,32.235,32.236,0,72,0
			h302.978c39.764,0,72,32.236,72,72V374.978z"/>
	</g>
	<text transform="matrix(1 0 0 1 158.4059 397.486)" fill="#FFFFFF" font-family="'DroidSans'" font-size="45">Sleep</text>
</g>
<g>
	<path fill="#FFFFFF" d="M375.727,190.476c-1.496,1.185-2.323,1.794-3.1,2.463c-20.091,17.283-40.158,34.594-60.294,51.824
		c-1.763,1.509-2.477,3.031-2.475,5.363c0.023,24.294-0.069,48.589-0.13,72.883c-0.011,4.228-0.013,4.234-4.358,4.238
		c-6.1,0.004-12.202-0.083-18.299,0.039c-2.352,0.047-3.002-0.759-2.992-3.091c0.087-20.298,0.007-40.597,0.103-60.895
		c0.012-2.545-0.578-3.404-3.279-3.401c-68.993,0.073-137.987,0.074-206.98-0.002c-2.798-0.003-3.235,1.033-3.226,3.486
		c0.081,20.824-0.009,41.649,0.108,62.472c0.016,2.89-0.783,3.799-3.691,3.704c-6.304-0.206-12.62-0.142-18.928-0.023
		c-2.241,0.042-3.143-0.497-3.14-2.96c0.065-47.538,0.072-95.076-0.012-142.614c-0.005-2.868,1.382-2.916,3.484-2.912
		c21.56,0.037,43.121-0.006,64.681,0.062c2.417,0.008,4.432-0.529,6.467-1.874c16.49-10.898,33.019-21.738,49.599-32.498
		c1.895-1.23,2.681-2.511,2.634-4.798c-0.148-7.254,0.004-14.513-0.088-21.769c-0.026-2.027,0.593-2.97,2.683-2.717
		c0.518,0.063,1.051,0.006,1.576,0.006c72.043,0,144.087,0,216.13,0.001c4.462,0,4.471,0.005,4.471,4.423
		c0.003,34.914,0.003,69.829-0.001,104.743c0,4.226-0.013,4.23-4.359,4.233c-4.522,0.004-9.049-0.11-13.566,0.044
		c-2.357,0.08-3.085-0.72-3.064-3.065c0.101-11.042,0.044-22.086,0.043-33.129C375.727,193.572,375.727,192.435,375.727,190.476z
		 M126.617,181.071c1.579,0,2.835,0,4.091,0c44.269,0,88.538,0,132.807,0c14.301,0,28.602,0.065,42.901-0.057
		c2.658-0.023,3.419,0.804,3.363,3.393c-0.151,7.042-0.051,14.089-0.049,21.134c0.001,2.839-0.015,5.678,0.026,8.517
		c0.009,0.604,0.03,1.474,0.399,1.75c0.747,0.56,1.288-0.34,1.857-0.725c0.607-0.411,1.15-0.917,1.725-1.377
		c19.52-15.653,38.725-31.705,59.055-46.326c6.517-4.687,6.641-10.455,0.346-15.421c-4.109-3.242-8.864-5.234-13.812-6.724
		c-18.419-5.55-37.242-6.283-56.21-4.166c-11.636,1.299-23.092,3.527-33.171,10.072c-1.145,0.743-1.9,0.321-2.821-0.289
		c-4.607-3.054-9.711-4.978-15.009-6.409c-17.598-4.753-35.456-5.211-53.494-3.423c-10.689,1.06-20.169,4.303-29.053,10.836
		c-13.023,9.577-26.939,17.938-40.458,26.843C128.276,179.248,127.183,179.553,126.617,181.071z M82.726,220.413
		c0-6.73-0.057-13.46,0.035-20.189c0.027-2.002-0.545-2.867-2.667-2.747c-2.62,0.149-5.259,0.124-7.883,0.007
		c-1.901-0.085-2.572,0.592-2.563,2.523c0.061,13.354,0.076,26.709-0.011,40.062c-0.015,2.302,0.893,2.914,2.989,2.804
		c2.412-0.127,4.843-0.145,7.252,0.004c2.224,0.138,2.924-0.727,2.888-2.908C82.658,233.453,82.727,226.932,82.726,220.413z
		 M107.337,220.129c0-6.624-0.053-13.25,0.033-19.873c0.025-1.963-0.474-2.905-2.634-2.779c-2.62,0.152-5.259,0.119-7.883,0.008
		c-1.865-0.079-2.604,0.525-2.595,2.491c0.063,13.459,0.061,26.918,0.004,40.378c-0.008,1.966,0.775,2.583,2.627,2.512
		c2.52-0.096,5.052-0.132,7.568,0.011c2.183,0.124,2.959-0.654,2.921-2.875C107.265,233.38,107.338,226.754,107.337,220.129z
		 M117.603,219.985c0,4.417-0.065,8.835,0.022,13.25c0.06,3.027-1.29,6.917,0.548,8.855c2.002,2.112,5.994,0.397,9.082,0.781
		c2.935,0.365,3.484-1.004,3.453-3.633c-0.125-10.62-0.009-21.242-0.077-31.862c-0.02-3.127,1.342-7.18-0.585-9.143
		c-2.072-2.111-6.195-0.37-9.388-0.75c-2.659-0.317-3.141,0.926-3.096,3.259C117.685,207.154,117.604,213.57,117.603,219.985z
		 M140.955,220.252c0,6.611,0.055,13.222-0.034,19.832c-0.027,1.978,0.515,2.899,2.646,2.79c2.616-0.135,5.247-0.096,7.868-0.012
		c1.739,0.056,2.486-0.632,2.482-2.375c-0.024-13.641-0.03-27.283-0.002-40.924c0.004-1.726-0.858-2.106-2.363-2.067
		c-2.622,0.067-5.255,0.151-7.867-0.024c-2.323-0.155-2.801,0.865-2.769,2.947C141.018,207.029,140.954,213.641,140.955,220.252z
		 M166.803,220.25c0,6.622,0.061,13.245-0.036,19.866c-0.03,2.018,0.573,2.874,2.675,2.758c2.41-0.134,4.846-0.186,7.247,0.014
		c2.604,0.217,3.205-0.914,3.185-3.295c-0.091-10.721,0.026-21.443-0.078-32.164c-0.031-3.213,1.486-7.444-0.734-9.374
		c-2.123-1.846-6.261-0.317-9.496-0.573c-2.283-0.181-2.841,0.77-2.805,2.903C166.874,207.005,166.803,213.628,166.803,220.25z
		 M207.014,220.347c0-4.311,0.066-8.624-0.022-12.934c-0.064-3.132,1.326-7.171-0.568-9.156c-2.053-2.152-6.182-0.391-9.373-0.771
		c-2.59-0.308-3.161,0.824-3.137,3.218c0.107,10.83-0.016,21.663,0.085,32.493c0.029,3.098-1.421,7.13,0.722,9.056
		c2.079,1.869,6.052,0.319,9.17,0.621c2.603,0.252,3.212-0.9,3.165-3.285C206.93,233.177,207.012,226.761,207.014,220.347z
		 M235.522,220.436c0-6.714-0.083-13.429,0.046-20.141c0.043-2.232-0.698-2.968-2.874-2.819c-2.297,0.158-4.628,0.196-6.918-0.008
		c-2.639-0.236-3.4,0.74-3.368,3.35c0.13,10.699-0.021,21.401,0.099,32.1c0.036,3.195-1.516,7.357,0.783,9.344
		c2.185,1.887,6.252,0.343,9.474,0.606c2.275,0.186,2.831-0.807,2.796-2.92C235.455,233.445,235.523,226.94,235.522,220.436z
		 M261.409,220.387c0-6.824-0.038-13.649,0.027-20.472c0.016-1.689-0.416-2.506-2.278-2.43c-2.83,0.116-5.67,0.099-8.502,0.005
		c-1.67-0.055-2.21,0.674-2.208,2.228c0.019,13.543,0.018,27.086-0.005,40.629c-0.003,1.88,0.818,2.609,2.692,2.521
		c2.305-0.108,4.631-0.173,6.925,0.017c2.553,0.211,3.491-0.586,3.412-3.288C261.283,233.199,261.412,226.791,261.409,220.387z
		 M270.382,220.161c0,6.611,0.071,13.223-0.04,19.832c-0.037,2.214,0.744,3.004,2.92,2.882c2.406-0.136,4.835-0.167,7.236,0.008
		c2.394,0.174,3.027-0.762,3.005-3.072c-0.106-10.807-0.01-21.617-0.069-32.425c-0.017-3.125,1.339-7.232-0.538-9.127
		c-2.167-2.188-6.375-0.419-9.672-0.763c-2.194-0.229-2.923,0.626-2.884,2.832C270.457,206.938,270.382,213.55,270.382,220.161z"/>
</g>
</svg>
