<?xml version="1.0" encoding="utf-8"?>
<!-- Generator: Adobe Illustrator 17.0.0, SVG Export Plug-In . SVG Version: 6.00 Build 0)  -->
<!DOCTYPE svg PUBLIC "-//W3C//DTD SVG 1.1//EN" "http://www.w3.org/Graphics/SVG/1.1/DTD/svg11.dtd">
<svg version="1.1" id="Layer_1" xmlns="http://www.w3.org/2000/svg" xmlns:xlink="http://www.w3.org/1999/xlink" x="0px" y="0px"
	 width="446.978px" height="446.978px" viewBox="0 0 446.978 446.978" enable-background="new 0 0 446.978 446.978"
	 xml:space="preserve">
<g>
	<g>
		<path fill="#600502" d="M446.978,374.978c0,39.764-32.236,72-72,72H72c-39.765,0-72-32.236-72-72V72C0,32.235,32.236,0,72,0
			h302.978c39.764,0,72,32.236,72,72V374.978z"/>
	</g>
</g>
<text transform="matrix(1 0 0 1 166.7555 397.4866)" fill="#FFFFFF" font-family="'DroidSans'" font-size="45">Study</text>
<g>
	<path fill="#FFFFFF" d="M183.84,297.225c0,5.781,0,10.496,0,15.784c-2.143,0.187-4.092,0.502-6.041,0.504
		c-29.94,0.036-59.881-0.055-89.82,0.118c-5.103,0.029-8.672-1.59-11.212-5.992c-16.039-27.8-17.756-56.326-0.832-83.813
		c23.88-38.786,49.373-76.576,73.919-114.956c3.595-5.62,7.634-7.849,14.357-7.826c67.365,0.23,134.73,0.11,202.096,0.237
		c5.375,0.01,11.844-2.289,15.457,4.039c3.593,6.291-1.477,10.689-4.309,15.328c-21.139,34.624-42.53,69.096-63.477,103.835
		c-3.756,6.23-8.055,8.617-15.308,8.591c-67.365-0.242-134.731-0.07-202.096-0.308c-5.997-0.021-8.95,1.948-10.95,7.387
		c-6.413,17.439-5.932,34.532,1.193,51.65c1.769,4.251,4.256,5.554,8.76,5.52c26.763-0.2,53.529-0.098,80.293-0.098
		C178.321,297.225,180.772,297.225,183.84,297.225z"/>
	<path fill="#FFFFFF" d="M250.779,264.638c-1.038,7.169-2.584,13.366-2.713,19.593c-0.363,17.419-0.118,34.851-0.157,52.277
		c-0.021,9.282-4.015,12.117-11.634,7.049c-9.545-6.35-17.855-6.754-27.653-0.31c-8.512,5.598-12.196,2.854-12.193-7.403
		c0.005-18.784-0.022-37.569,0.031-56.353c0.029-10.327,4.466-14.833,14.478-14.848C224.683,264.623,238.43,264.638,250.779,264.638
		z"/>
	<path fill="#FFFFFF" d="M259.19,313.521c0-5.705,0-10.559,0-16.184c15.575,0,30.879-0.242,46.167,0.147
		c4.616,0.117,7.133,3.732,6.794,8.521c-0.34,4.812-3.247,7.438-7.988,7.475C289.481,313.593,274.796,313.521,259.19,313.521z"/>
</g>
</svg>
