<?xml version="1.0" encoding="utf-8"?>
<!-- Generator: Adobe Illustrator 17.0.0, SVG Export Plug-In . SVG Version: 6.00 Build 0)  -->
<!DOCTYPE svg PUBLIC "-//W3C//DTD SVG 1.1//EN" "http://www.w3.org/Graphics/SVG/1.1/DTD/svg11.dtd">
<svg version="1.1" id="Layer_1" xmlns="http://www.w3.org/2000/svg" xmlns:xlink="http://www.w3.org/1999/xlink" x="0px" y="0px"
	 width="446.978px" height="446.978px" viewBox="0 0 446.978 446.978" enable-background="new 0 0 446.978 446.978"
	 xml:space="preserve">
<g>
	<path fill="#776F57" d="M446.978,374.978c0,39.764-32.236,72-72,72H72c-39.765,0-72-32.236-72-72V72C0,32.235,32.236,0,72,0
		h302.978c39.764,0,72,32.236,72,72V374.978z"/>
</g>
<text transform="matrix(1 0 0 1 137.0704 397.4867)" fill="#FFFFFF" font-family="'DroidSans'" font-size="45">Workout</text>
<g>
	<g>
		<rect x="204.902" y="203.74" fill="#FFFFFF" width="184.712" height="38.917"/>
		<rect x="352.439" y="195.027" fill="#FFFFFF" width="23.815" height="59.247"/>
		<path fill="#FFFFFF" d="M307.318,300.162c0,11.869-9.622,21.492-21.492,21.492l0,0c-11.87,0-21.492-9.622-21.492-21.492V146.816
			c0-11.869,9.622-21.492,21.492-21.492l0,0c11.869,0,21.492,9.622,21.492,21.492V300.162z"/>
		<path fill="#FFFFFF" d="M338.944,273.152c0,8.822-7.152,15.973-15.973,15.973l0,0c-8.822,0-15.973-7.152-15.973-15.973v-99.326
			c0-8.822,7.152-15.973,15.973-15.973l0,0c8.822,0,15.973,7.152,15.973,15.973V273.152z"/>
	</g>
	<g>
		<rect x="57.365" y="203.889" fill="#FFFFFF" width="184.712" height="38.917"/>
		<rect x="70.724" y="192.704" fill="#FFFFFF" width="23.815" height="59.247"/>
		<path fill="#FFFFFF" d="M139.66,146.816c0-11.869,9.622-21.492,21.492-21.492l0,0c11.869,0,21.492,9.622,21.492,21.492v153.345
			c0,11.869-9.622,21.492-21.492,21.492l0,0c-11.869,0-21.492-9.622-21.492-21.492V146.816z"/>
		<path fill="#FFFFFF" d="M108.034,173.826c0-8.822,7.152-15.973,15.973-15.973l0,0c8.822,0,15.973,7.152,15.973,15.973v99.326
			c0,8.822-7.152,15.973-15.973,15.973l0,0c-8.822,0-15.973-7.152-15.973-15.973V173.826z"/>
	</g>
</g>
</svg>
