<?xml version="1.0" encoding="utf-8"?>
<!-- Generator: Adobe Illustrator 17.0.0, SVG Export Plug-In . SVG Version: 6.00 Build 0)  -->
<!DOCTYPE svg PUBLIC "-//W3C//DTD SVG 1.1//EN" "http://www.w3.org/Graphics/SVG/1.1/DTD/svg11.dtd">
<svg version="1.1" id="Layer_1" xmlns="http://www.w3.org/2000/svg" xmlns:xlink="http://www.w3.org/1999/xlink" x="0px" y="0px"
	 width="446.978px" height="446.978px" viewBox="0 0 446.978 446.978" enable-background="new 0 0 446.978 446.978"
	 xml:space="preserve">
<g>
	<g>
		<g>
			<path fill="#600502" d="M446.978,374.978c0,39.764-32.236,72-72,72H72c-39.765,0-72-32.236-72-72V72C0,32.235,32.236,0,72,0
				h302.978c39.764,0,72,32.236,72,72V374.978z"/>
		</g>
	</g>
	<text transform="matrix(1 0 0 1 170.93 397.4866)" fill="#FFFFFF" font-family="'DroidSans'" font-size="45">Work</text>
	<g>
		<g>
			<path fill="#FFFFFF" d="M22.45,306.727c0,7.497,6.078,13.575,13.575,13.575h374.927c7.497,0,13.575-6.078,13.575-13.575H22.45z
				 M269.621,314.741h-92.263c-1.243,0-2.25-1.007-2.25-2.25c0-1.243,1.008-2.25,2.25-2.25h92.263c1.243,0,2.25,1.008,2.25,2.25
				C271.871,313.733,270.863,314.741,269.621,314.741z"/>
		</g>
		<g>
			<path fill="#FFFFFF" d="M363.715,303.111H83.263c-13.089,0-23.737-11.144-23.737-24.841V119.051
				c0-13.697,10.649-24.841,23.737-24.841h280.451c13.089,0,23.737,11.144,23.737,24.841V278.27
				C387.452,291.967,376.803,303.111,363.715,303.111z M83.263,104.497c-7.416,0-13.45,6.529-13.45,14.553V278.27
				c0,8.025,6.034,14.553,13.45,14.553h280.451c7.416,0,13.45-6.529,13.45-14.553V119.051c0-8.025-6.034-14.553-13.45-14.553H83.263
				z"/>
		</g>
	</g>
</g>
</svg>
